<svg xmlns="http://www.w3.org/2000/svg" xmlns:xlink="http://www.w3.org/1999/xlink" viewBox="0 0 102 37" fill="#fff" fill-rule="evenodd" stroke="#000" stroke-linecap="round" stroke-linejoin="round"><use xlink:href="#A" x=".5" y=".5"/><symbol id="A" overflow="visible"><g stroke="none" fill-rule="nonzero"><path d="M27.347 6.923a.35.35 0 0 0-.313-.293c-.125-.02-2.87-.2-2.87-.2l-2.093-2.093c-.188-.2-.606-.148-.764-.104-.02 0-.418.125-1.067.336-.632-1.826-1.75-3.502-3.718-3.502h-.168C15.789.337 15.099 0 14.514 0c-4.584.02-6.77 5.738-7.46 8.66l-3.204.983c-.983.313-1.02.336-1.15 1.273L0 31.749l20.248 3.8 10.974-2.366c0-.02-3.853-26.04-3.873-26.238zm-8.23-2.012c-.5.168-1.1.336-1.716.525v-.377a8.31 8.31 0 0 0-.418-2.776c1.026.158 1.716 1.3 2.134 2.628zm-3.37-2.386c.335.987.5 2.027.458 3.07v.188l-3.54 1.1c.693-2.587 1.97-3.866 3.08-4.347zm-1.36-1.273a1.11 1.11 0 0 1 .586.188c-1.477.688-3.038 2.424-3.708 5.9l-2.8.858c.8-2.638 2.633-6.952 5.92-6.952z" fill="#95bf47"/><path d="M27.035 6.629c-.125-.02-2.87-.2-2.87-.2l-2.093-2.093a.41.41 0 0 0-.293-.125l-1.528 31.324 10.974-2.376-3.876-26.218c-.026-.16-.152-.288-.313-.313z" fill="#5e8e3e"/><path d="M16.521 12.701l-1.362 4.02c-.823-.4-1.724-.613-2.638-.63-2.137 0-2.24 1.34-2.24 1.676 0 1.83 4.795 2.534 4.795 6.848 0 3.392-2.157 5.57-5.047 5.57-3.476 0-5.256-2.157-5.256-2.157l.924-3.08s1.82 1.57 3.372 1.57a1.37 1.37 0 0 0 1.424-1.383c0-2.4-3.937-2.514-3.937-6.45 0-3.3 2.386-6.535 7.182-6.535 1.885.028 2.786.55 2.786.55z"/><path d="M40.749 18.689c-.783-.42-1.188-.783-1.188-1.28 0-.63.55-1.037 1.443-1.037a5.12 5.12 0 0 1 1.925.421l.722-2.194s-.662-.512-2.602-.512c-2.706 0-4.586 1.55-4.586 3.728 0 1.232.872 2.18 2.044 2.856.947.55 1.28.914 1.28 1.488s-.466 1.053-1.353 1.053c-1.307 0-2.54-.676-2.54-.676l-.766 2.194s1.143.766 3.052.766c2.78 0 4.78-1.368 4.78-3.84.015-1.338-.993-2.27-2.2-2.977zm11.094-4.615c-1.368 0-2.45.647-3.278 1.646l-.046-.015 1.188-6.216h-3.095l-3.007 15.83h3.097l1.037-5.412c.406-2.044 1.463-3.308 2.45-3.308.7 0 .962.466.962 1.143a7.06 7.06 0 0 1-.135 1.368l-1.172 6.194h3.097l1.218-6.4c.134-.662.209-1.335.225-2.01-.015-1.744-.932-2.796-2.54-2.796zm9.53 0c-3.728 0-6.194 3.368-6.194 7.1 0 2.406 1.488 4.33 4.27 4.33 3.657 0 6.134-3.278 6.134-7.1 0-2.225-1.307-4.33-4.205-4.33zm-1.52 9.065c-1.053 0-1.503-.9-1.503-2 0-1.774.914-4.675 2.602-4.675 1.097 0 1.463.947 1.463 1.865-.004 1.905-.92 4.82-2.56 4.82zm13.65-9.065c-2.1 0-3.278 1.828-3.278 1.828h-.046l.183-1.646h-2.743l-.63 4.105-2.15 11.336h3.083l.858-4.586h.06s.63.406 1.82.406c3.638 0 6.013-3.728 6.013-7.496.015-2.075-.914-3.938-3.172-3.938zm-2.962 9.1a1.93 1.93 0 0 1-1.28-.452l.512-2.902c.366-1.925 1.368-3.218 2.45-3.218.947 0 1.232.872 1.232 1.7.005 2.017-1.18 4.873-2.9 4.873zm10.57-13.56a1.76 1.76 0 0 0-1.263.522c-.333.337-.518.794-.5 1.268 0 .914.587 1.55 1.463 1.55h.046a1.75 1.75 0 0 0 1.819-1.79c0-.9-.602-1.55-1.55-1.55zm-4.336 15.675h3.097l2.104-10.97h-3.108m11-.015h-2.153l.106-.512c.183-1.053.812-2 1.828-2 .337 0 .671.051.993.15l.598-2.423s-.55-.27-1.684-.27a4.63 4.63 0 0 0-3.037 1.037c-1.053.9-1.55 2.194-1.8 3.503l-.1.512h-1.444l-.452 2.33h1.443l-1.646 8.66h3.108l1.647-8.66h2.136l.42-2.33zm7.458.015l-2.812 7.547h-.046l-.766-7.547h-3.264l1.865 10.072a.71.71 0 0 1-.06.512c-.405.747-.982 1.386-1.684 1.865a7.03 7.03 0 0 1-1.744.872l.858 2.63a7.1 7.1 0 0 0 3.031-1.689c1.413-1.324 2.72-3.368 4.06-6.15l3.788-8.118h-3.227z" fill="#000"/></g></symbol></svg>