<svg width="31" height="30" viewBox="0 0 31 30" fill="none" xmlns="http://www.w3.org/2000/svg">
<g clip-path="url(#clip0_544:4506)">
<path d="M1.32581 3.46153V23.6538L8.24888 18.4615C8.74766 18.086 9.35532 17.8835 9.97965 17.8846H21.5181C23.1113 17.8846 24.4027 16.5932 24.4027 15V3.46153C24.4027 1.86841 23.1113 0.57692 21.5181 0.57692H4.21042C2.61729 0.57692 1.32581 1.86841 1.32581 3.46153ZM4.21042 17.8846V3.46153H21.5181V15H9.01908C8.39466 14.9983 7.78682 15.2009 7.28831 15.5769L4.21042 17.8846Z" fill="black"/>
<path d="M30.172 29.4231V10.6731C30.172 9.07995 28.8805 7.78847 27.2873 7.78847V23.6539L24.2095 21.3462C23.711 20.9701 23.1031 20.7675 22.4787 20.7692H8.53734C8.53734 22.3624 9.82882 23.6539 11.422 23.6539H21.5181C22.1425 23.6527 22.7501 23.8552 23.2489 24.2308L30.172 29.4231Z" fill="black"/>
</g>
<defs>
<clipPath id="clip0_544:4506">
<rect width="30" height="30" fill="white" transform="translate(0.883423)"/>
</clipPath>
</defs>
</svg>
