<svg width="30" height="30" viewBox="0 0 30 30" fill="none" xmlns="http://www.w3.org/2000/svg">
<g clip-path="url(#clip0_544:4408)">
<path d="M15.9906 0.393192C15.1815 -0.1421 14.1261 -0.129782 13.3293 0.425404L1.40702 8.72951C0.771301 9.17295 0.392334 9.89765 0.392334 10.6736V19.6211C0.392334 20.4169 0.791197 21.1587 1.45533 21.5973L13.5728 29.6077C14.3649 30.1317 15.3937 30.1317 16.1858 29.6077L28.5439 21.4429C29.2071 21.0043 29.6069 20.2624 29.6069 19.4666V10.6755C29.6069 9.88062 29.2081 9.13881 28.5448 8.70016L15.9906 0.393192ZM25.2213 10.0853L20.6539 13.1521L16.3705 10.0369L16.3431 3.91001L25.2213 10.0853ZM13.2441 3.91569V9.91192L8.8547 12.9816L4.47666 10.0455L13.2441 3.91569ZM3.27628 13.0005L6.11 14.8991L3.27628 16.8821V13.0005ZM13.3189 25.784L4.47855 19.8551L8.89451 16.7684L13.3189 19.7366V25.784ZM11.6401 14.8498L14.5022 12.8479L17.8362 15.0393L14.8812 17.0242L11.6401 14.8498ZM16.4416 25.784V19.7347L20.6699 16.901L25.2223 19.8939L16.4416 25.784ZM26.4842 16.9844L23.4828 15.0118L26.4842 12.9986V16.9844Z" fill="black"/>
</g>
<defs>
<clipPath id="clip0_544:4408">
<rect width="30" height="30" fill="white"/>
</clipPath>
</defs>
</svg>
