<svg width="30" height="30" viewBox="0 0 30 30" fill="none" xmlns="http://www.w3.org/2000/svg">
<g clip-path="url(#clip0_544:4411)">
<path d="M10.8204 24.1211C10.6119 24.16 10.5208 24.2578 10.5469 24.414C10.5729 24.5702 10.6901 24.6224 10.8984 24.5702C11.107 24.5182 11.198 24.4268 11.1718 24.2967C11.146 24.1536 11.0287 24.0949 10.8204 24.1211Z" fill="black"/>
<path d="M9.70728 24.2775C9.4989 24.2775 9.39479 24.3487 9.39479 24.4922C9.39479 24.6615 9.50555 24.7329 9.72682 24.7069C9.9352 24.7069 10.0394 24.6353 10.0394 24.4922C10.0394 24.3232 9.92863 24.2513 9.70728 24.2775Z" fill="black"/>
<path d="M8.18391 24.2184C8.13194 24.3618 8.21659 24.4592 8.43778 24.5115C8.6331 24.5893 8.75683 24.5504 8.8088 24.3943C8.84797 24.2512 8.76324 24.1473 8.55494 24.0818C8.35961 24.0298 8.23597 24.0748 8.18391 24.2184Z" fill="black"/>
<path d="M28.3495 1.65024C27.2492 0.550148 25.9247 0 24.3749 0H5.62497C4.07563 0 2.7506 0.550148 1.65024 1.65024C0.550149 2.75054 0 4.07556 0 5.62496V24.3752C0 25.9246 0.550149 27.2495 1.65024 28.3496C2.75054 29.4499 4.07563 30.0001 5.62497 30.0001H9.99997C10.2862 30.0001 10.5012 29.9902 10.6444 29.9711C10.7875 29.9514 10.9306 29.8666 11.0739 29.7168C11.2173 29.5672 11.2888 29.349 11.2888 29.0626C11.2888 29.0238 11.2853 28.5806 11.2789 27.7344C11.2722 26.8878 11.2691 26.2172 11.2691 25.7224L10.8198 25.8006C10.5333 25.8526 10.172 25.8755 9.73573 25.8689C9.29968 25.8624 8.84708 25.8169 8.37843 25.7323C7.9095 25.6475 7.47345 25.4522 7.06978 25.1466C6.66629 24.8402 6.37986 24.44 6.21055 23.9454L6.01517 23.4958C5.88499 23.1967 5.68004 22.8645 5.40003 22.5002C5.12004 22.1355 4.83689 21.888 4.55046 21.7578L4.41371 21.6601C4.32265 21.5951 4.23803 21.5166 4.15984 21.4255C4.08178 21.3342 4.02323 21.243 3.98416 21.1521C3.94511 21.0608 3.97753 20.9859 4.08178 20.9271C4.18604 20.8687 4.37465 20.8396 4.64822 20.8396L5.03869 20.8981C5.2992 20.9501 5.62127 21.1062 6.00559 21.3668C6.38964 21.6272 6.70536 21.9657 6.95279 22.3822C7.25243 22.9162 7.61342 23.3228 8.03681 23.6028C8.45984 23.8831 8.88641 24.023 9.31597 24.023C9.74562 24.023 10.1166 23.9905 10.4293 23.9257C10.7415 23.8604 11.0346 23.7625 11.3081 23.6323C11.4253 22.76 11.7444 22.0891 12.2651 21.6204C11.5229 21.5422 10.8557 21.4251 10.2631 21.2688C9.67078 21.1124 9.0587 20.8587 8.42732 20.5069C7.7956 20.1553 7.27158 19.7194 6.85489 19.1983C6.43828 18.6771 6.09637 17.9936 5.82965 17.1475C5.56278 16.3009 5.42931 15.3242 5.42931 14.2176C5.42931 12.6422 5.94382 11.3008 6.97242 10.1942C6.49055 9.00932 6.53604 7.68135 7.10903 6.20986C7.48666 6.09261 8.04666 6.18058 8.78878 6.47358C9.531 6.76678 10.0745 7.0175 10.4196 7.22553C10.7648 7.43364 11.0414 7.60959 11.2498 7.75297C12.4609 7.41441 13.7109 7.24517 14.9998 7.24517C16.2888 7.24517 17.5389 7.41441 18.7502 7.75297L19.4923 7.28424C20.0004 6.9716 20.5991 6.68517 21.2894 6.42487C21.9795 6.16451 22.5067 6.09281 22.8714 6.21007C23.4572 7.68156 23.5096 9.00949 23.0274 10.1943C24.0559 11.3011 24.5706 12.6424 24.5706 14.2178C24.5706 15.3246 24.4371 16.3046 24.1703 17.1572C23.9036 18.0101 23.5588 18.694 23.1353 19.2083C22.7122 19.7227 22.1848 20.1552 21.5534 20.5071C20.9218 20.8585 20.3098 21.1127 19.7172 21.2686C19.1248 21.425 18.4575 21.5425 17.7154 21.6208C18.392 22.2064 18.7305 23.1307 18.7305 24.3939V29.0621C18.7305 29.2835 18.7628 29.4624 18.8279 29.5991C18.8934 29.7358 18.9975 29.8299 19.1406 29.8824C19.2844 29.9344 19.4107 29.9668 19.5217 29.9798C19.6326 29.9929 19.7919 29.9994 20.0003 29.9994H24.3752C25.9245 29.9994 27.2496 29.4493 28.3495 28.3489C29.4498 27.2487 29.9999 25.9236 29.9999 24.3743V5.62496C29.9998 4.07556 29.4496 2.75033 28.3495 1.65024Z" fill="black"/>
<path d="M5.93733 21.836C5.84627 21.9008 5.85927 22.005 5.97646 22.1483C6.10684 22.2784 6.21089 22.298 6.28909 22.2067C6.38014 22.1419 6.36715 22.0377 6.24976 21.8942C6.11964 21.7772 6.01552 21.7575 5.93733 21.836Z" fill="black"/>
<path d="M5.29326 21.3477C5.25426 21.439 5.29982 21.5171 5.43001 21.582C5.53406 21.6474 5.61895 21.6345 5.68387 21.5432C5.72286 21.4519 5.6773 21.3736 5.54712 21.3083C5.41694 21.2692 5.33232 21.2823 5.29326 21.3477Z" fill="black"/>
<path d="M6.54321 22.5977C6.42588 22.6626 6.42588 22.7801 6.54321 22.9492C6.6604 23.1187 6.77088 23.1641 6.8752 23.0858C6.99245 22.9946 6.99245 22.8709 6.8752 22.7146C6.77115 22.5457 6.6604 22.5062 6.54321 22.5977Z" fill="black"/>
<path d="M7.22678 23.4764C7.10953 23.5807 7.13539 23.704 7.30491 23.8477C7.46095 24.0036 7.5912 24.0232 7.69539 23.9058C7.79964 23.8018 7.77358 23.6783 7.61727 23.535C7.46123 23.379 7.33097 23.3593 7.22678 23.4764Z" fill="black"/>
</g>
<defs>
<clipPath id="clip0_544:4411">
<rect width="30" height="30" fill="white"/>
</clipPath>
</defs>
</svg>
