<svg width="380" height="358" viewBox="0 0 380 358" fill="none" xmlns="http://www.w3.org/2000/svg">
<path d="M81.5518 117.856C81.5518 117.856 84.801 205.288 91.3278 208.524C91.3278 208.524 71.7687 189.099 68.5125 215.001C69.7282 231.162 73.795 237.985 77.4779 241.171C79.1416 242.584 82.5685 244.894 84.7655 249.527C86.2514 252.649 85.9386 254.224 87.9436 257.135C89.5269 259.622 91.829 261.577 94.5486 262.743C96.5038 263.506 97.8475 263.414 104.367 263.569L117.4 279.759L146.735 308.903L176.07 318.622C176.07 318.622 237.996 312.145 241.259 302.426C244.523 292.706 280.363 253.857 280.363 253.857V226.691C280.363 226.691 290.139 234.425 296.659 224.713C303.179 215.001 306.435 205.288 306.435 185.864C306.435 166.439 290.139 166.439 290.139 166.439C290.139 166.439 283.62 163.197 277.1 172.909C270.58 182.622 267.324 143.772 267.324 143.772L260.811 124.319L247.772 95.1753L228.22 75.7507L163.009 72.5226L101.082 82.235L75.0108 104.902L81.5518 117.856Z" fill="black"/>
<path d="M291.526 240.408C289.812 242.118 287.317 242.04 286.549 241.983C282.859 241.701 279.923 238.452 280.342 237.668C280.762 236.884 284.466 239.349 286.855 237.668C289.045 236.128 290.083 231.558 288.817 228.181C288.298 226.811 287.395 225.638 287.836 224.099C288.063 223.258 288.703 222.184 289.578 222.114C290.452 222.043 291.099 222.954 291.654 223.703C292.544 224.967 293.133 226.417 293.374 227.941C294.057 231.188 293.903 234.553 292.926 237.724C292.69 238.72 292.209 239.642 291.526 240.408Z" fill="black"/>
<path d="M293.936 220.044C295.059 220.044 295.97 219.14 295.97 218.024C295.97 216.908 295.059 216.004 293.936 216.004C292.813 216.004 291.903 216.908 291.903 218.024C291.903 219.14 292.813 220.044 293.936 220.044Z" fill="black"/>
<path d="M99.5255 265.674C99.6535 266.134 100.236 268.359 102.142 269.39C102.495 269.624 102.893 269.786 103.311 269.865C103.728 269.944 104.158 269.938 104.573 269.849C105.284 269.623 105.448 269.143 106.067 269.143C106.402 269.161 106.725 269.275 106.996 269.472C107.268 269.669 107.476 269.94 107.595 270.252C107.965 271.438 106.337 273.211 104.637 273.875C101.644 275.048 98.5941 272.717 98.3595 272.533C96.6176 271.156 96.0914 269.425 95.3307 266.939C94.7548 265.046 93.9443 262.376 95.2311 260.236C95.4373 259.889 96.1128 258.773 97.101 258.752C98.0893 258.731 98.8358 259.847 98.9709 260.052C100.116 261.768 98.8216 263.019 99.5255 265.674Z" fill="black"/>
<path d="M89.6997 116.239C87.645 120.597 85.8107 124.496 86.4363 129.193L92.956 142.141C92.956 142.141 91.6265 146.887 85.7751 146.131C85.7751 146.131 83.18 151.86 89.6997 158.33C96.2194 164.8 92.956 183.505 92.956 183.505C92.956 183.505 92.956 200.457 96.2194 203.664C96.2194 203.664 92.956 216.618 99.4757 226.331V240.161C99.4757 240.161 89.6997 226.352 89.6997 213.404C89.6997 200.457 73.4254 200.429 73.4254 206.906C73.4254 213.383 73.4254 226.331 76.6817 232.808C79.938 239.285 60.386 239.285 60.386 239.285C60.386 239.285 73.4254 232.808 70.1406 229.566C66.8559 226.324 63.6209 229.566 63.6209 229.566C63.6209 229.566 60.3646 219.853 63.6209 219.853C66.8772 219.853 63.6209 203.657 63.6209 203.657C63.6209 203.657 53.845 206.899 53.845 213.376C53.845 213.376 53.845 203.657 60.3646 200.422C66.8843 197.187 63.6209 180.99 60.3646 180.99C57.1084 180.99 47.3253 193.944 47.3253 200.422C47.3253 206.899 44.069 184.232 44.069 184.232C44.069 184.232 27.7733 190.709 31.0296 184.232C31.0296 184.232 44.069 180.99 40.8056 174.52C37.5422 168.05 40.8056 155.088 40.8056 155.088C40.8056 155.088 33.4256 150.758 30.603 154.544C27.7804 158.33 40.8056 135.663 44.069 138.898C47.3324 142.134 57.1084 122.709 57.1084 122.709C60.0945 118.626 60.2296 113.484 57.6914 110.298C54.8474 106.767 49.771 106.908 48.8041 106.957C47.0614 107.063 45.3629 107.545 43.8272 108.37C45.0366 106.153 46.8501 104.32 49.0601 103.079C54.5844 100.12 61.0543 102.458 61.7368 100.515C62.0497 99.6112 60.8766 98.474 60.3646 97.9725C56.8951 94.589 50.8304 96.7222 50.5673 96.814C52.9041 93.7895 55.9908 91.419 59.5257 89.9342C63.9158 88.1344 68.7671 87.7634 73.3827 88.8747C73.3116 83.9302 72.1101 82.2208 70.9227 81.684C67.1545 79.9676 60.9263 88.4932 53.8236 87.1017C52.8922 86.9181 52.4017 86.6638 52.1741 86.247C51.129 84.4882 54.6341 80.7304 60.3433 74.1472C60.3433 74.1472 73.3827 64.4349 76.639 64.4349C79.8953 64.4349 76.6603 57.9224 73.4254 57.9224C70.1904 57.9224 96.2407 51.4451 99.497 64.3996C108.74 65.3673 115.85 65.1059 118.793 64.4349C120.869 63.9828 123.059 63.3189 123.094 63.3189C123.805 63.0999 125.291 62.6549 126.969 62.0192C128.526 61.4259 129.813 60.8325 135.352 57.9224C135.352 57.9224 145.128 57.9223 151.647 64.3996C158.167 70.8768 171.199 67.6417 171.199 67.6417C171.199 67.6417 220.094 61.1645 249.407 90.3086C278.721 119.453 308.049 148.618 308.049 161.572C308.049 174.527 304.793 174.527 304.793 174.527C304.793 174.527 296.929 161.424 281.33 177.691C281.33 177.691 288.526 187.474 291.782 184.239C295.038 181.004 287.182 195.583 281.33 194.764C275.479 193.944 281.33 205.903 281.33 205.903C275.5 203.035 273.225 199.701 272.23 197.194C270.495 192.857 272.088 189.756 272.23 180.997C272.249 176.948 271.985 172.903 271.441 168.89C269.45 155.194 260.442 151.231 252.671 135.692C249.619 129.539 247.425 123.001 246.151 116.26C246.151 116.26 226.599 87.1158 203.784 93.5931C180.968 100.07 187.488 100.07 187.488 100.07C173.753 95.8867 159.479 93.7049 145.114 93.5931C140.386 93.5931 108.143 93.5931 96.2265 106.548C93.6264 109.475 91.4314 112.734 89.6997 116.239ZM285.618 232.787C285.618 232.787 283.918 240.973 281.352 240.119C278.785 239.264 281.352 254.02 281.352 254.02L278.188 256.209C277.726 258.639 277.52 261.26 278.721 261.952C279.126 262.185 279.432 262.044 279.681 262.263C281.103 263.598 278.259 268.853 275.458 271.664C272.201 274.899 262.418 287.854 262.418 287.854C262.418 287.854 255.906 297.566 242.866 307.286C229.827 317.005 229.827 320.233 216.788 326.71C203.748 333.187 174.42 329.952 171.164 329.952C167.908 329.952 145.085 323.475 138.565 316.998C132.046 310.521 119.013 294.331 119.013 294.331C119.013 294.331 112.494 284.619 109.23 274.899C107.409 269.37 105.234 263.963 102.718 258.71C102.552 254.213 101.44 249.8 99.4544 245.755C99.4544 245.755 98.9283 241.517 99.4544 226.331C99.4544 226.331 102.718 242.52 105.974 242.52C109.23 242.52 112.288 239.483 112.487 239.292C112.352 239.511 109.301 244.547 112.487 248.348C115.672 252.148 125.526 248.997 125.526 248.997C125.526 248.997 132.039 268.422 135.302 268.422C138.565 268.422 135.302 248.997 141.822 242.52C141.822 242.52 149.337 228.047 167.893 219.853C169.109 219.317 171.448 217.628 172.55 218.441C172.789 218.637 172.952 218.909 173.012 219.211C174.117 219.425 175.243 219.52 176.368 219.493C177.236 219.493 178.544 219.295 181.957 218.405C183.824 217.922 185.66 217.323 187.452 216.611C187.452 216.611 210.268 213.369 220.044 226.324C220.044 226.324 226.564 223.088 229.82 229.559C233.076 236.029 239.596 239.278 236.34 252.225C236.34 252.225 249.379 245.748 249.379 242.513V232.808C249.379 232.808 252.635 236.043 255.899 229.566L262.411 216.618C262.411 216.618 265.675 210.141 268.931 210.141C272.187 210.141 272.194 197.187 272.194 197.187C272.194 197.187 280.627 201.149 281.302 207.259C282.191 215.858 283.633 224.392 285.618 232.808V232.787ZM233.112 255.475C233.112 248.997 223.329 242.52 223.869 240.14C224.409 237.759 213.581 229.545 207.061 229.545C200.542 229.545 187.509 232.787 177.726 232.787C167.943 232.787 161.402 242.52 151.633 248.997C141.864 255.475 141.85 268.415 141.85 268.415C141.85 268.415 141.85 274.892 148.37 284.612C154.89 294.331 161.402 291.082 161.402 291.082C161.402 291.082 174.442 287.847 180.961 284.612C187.481 281.377 167.922 265.18 167.922 265.18C184.218 265.18 216.809 258.703 210.296 261.945C203.784 265.187 207.033 281.37 210.296 281.37C213.56 281.37 223.329 274.892 226.592 271.657C229.855 268.422 233.112 261.952 233.112 255.475Z" fill="black"/>
<path d="M309.549 115.575C304.139 118.012 296.233 109.719 288.518 103.284C278.899 95.2389 254.839 87.4125 207.708 70.5873C167.346 56.1706 147.161 48.9658 141.85 48.2383C131.477 46.8256 120.578 46.2958 117.279 39.4018C113.24 30.968 122.483 16.954 132.067 9.38192C137.279 5.27095 152.806 -4.99233 193.993 2.90468C199.902 4.03484 299.731 24.3283 312.962 83.6759C315.337 94.3277 316.332 112.516 309.549 115.575Z" fill="black"/>
<path d="M379.78 206.906C380.022 226.811 380.178 239.398 373.26 245.755C364.288 254.02 346.179 247.585 321.11 239.278C321.11 239.278 317.839 238.572 304.814 232.801C301.181 231.19 297.818 229.587 297.214 226.656C296.808 224.706 297.811 223.124 298.842 221.231C298.842 221.231 299.667 219.733 300.811 217.042C302.304 213.553 303.826 210.141 304.75 205.74C305.056 204.285 305.184 203.212 305.461 201.057C305.953 197.074 306.191 193.063 306.172 189.049C306.119 188.108 306.119 187.165 306.172 186.224C306.281 185.308 306.328 184.385 306.314 183.462C306.314 182.911 306.236 182.509 306.172 181.986C306.072 180.785 305.834 179.6 305.461 178.454C305.34 178.129 305.383 178.306 304.039 175.629C303.477 174.513 303.492 174.527 303.328 174.216C302.795 173.214 302.206 172.243 301.565 171.306C298.721 167.068 297.946 165.231 295.052 161.594C291.078 156.6 290.026 157.115 285.269 151.881C280.356 146.471 280.499 144.818 275.493 138.927C272.49 135.446 269.221 132.199 265.717 129.214C249.462 114.834 232.017 101.838 213.567 90.3651C183.706 73.6458 171.896 69.1322 167.801 69.3158C164.693 69.4878 161.576 69.1901 158.558 68.4329C156.855 67.9955 155.191 67.4215 153.581 66.7164C142.703 62.1181 140.414 57.6752 135.458 58.4239C135.167 58.4663 133.269 59.3139 129.472 61.0021C125.156 62.9233 124.211 63.4814 122.049 64.0253C120.364 64.4491 120.45 64.2372 116.212 64.8587C110.787 65.6499 110.595 66.0101 108.505 66.109C106.941 66.1867 103.152 66.3703 99.5326 64.4561C95.0961 62.1181 94.1647 58.6075 89.7566 57.9789C89.2002 57.8987 88.6351 57.8987 88.0787 57.9789C85.1708 58.438 84.6802 60.663 81.6088 62.8103C78.3809 65.0636 77.2362 63.778 75.0891 66.0454C73.7311 67.4581 73.4254 68.7931 71.8257 69.2876C70.5175 69.6902 70.2046 68.9697 68.5694 69.2876C67.3181 69.5277 67.6024 69.9304 64.3035 71.6962C63.4291 72.1815 62.5882 72.7242 61.7866 73.3208C61.5389 73.5106 61.3016 73.7134 61.0756 73.9283C60.7273 74.2532 60.1372 74.8819 58.9854 76.1392C58.2985 76.8042 57.6549 77.512 57.0586 78.2582C56.0774 79.6709 56.1983 80.3773 55.5087 82.2279C54.3498 85.2864 52.8638 86.1058 53.2051 86.5861C54.0867 87.8222 64.6874 83.4217 67.1972 82.016C67.9959 81.5334 68.9228 81.3019 69.8563 81.352C70.3094 81.3995 70.7514 81.5212 71.1645 81.7123C71.9373 82.1416 72.5654 82.7878 72.9704 83.57C73.3969 84.4459 73.0699 84.6295 73.4396 87.1017C73.5889 88.1118 73.7311 88.6769 73.4396 88.8747C73.1481 89.0725 72.8424 88.797 72.0176 88.578C71.4366 88.4563 70.8472 88.3784 70.2544 88.3449C69.1433 88.2106 68.0212 88.1893 66.9057 88.2814C66.4578 88.3237 66.1947 88.3732 65.5904 88.4721C63.2661 88.8134 60.9929 89.4373 58.8218 90.3298C58.381 90.5205 58.1606 90.6123 57.8407 90.7748C56.4187 91.4811 55.7077 92.1875 53.9374 93.798C52.4728 95.0976 51.1575 96.1854 51.2783 96.362C51.3992 96.5386 51.9893 96.3196 52.2097 96.2631C53.6057 95.9211 55.0573 95.8659 56.4756 96.1007C56.7173 96.1501 56.5538 96.1007 57.7411 96.4397C58.2465 96.5276 58.7403 96.6721 59.2129 96.8706C59.6608 97.1107 59.4973 97.1884 60.4073 97.9725C61.0472 98.5234 61.3885 98.7142 61.5947 99.2157C61.6609 99.4029 61.7155 99.594 61.7582 99.7878C61.8719 100.247 61.9288 100.494 61.8293 100.65C61.7297 100.805 61.7369 100.734 61.3671 100.989C60.9974 101.243 61.0259 101.25 60.9121 101.321C60.5922 101.491 60.223 101.546 59.867 101.476C58.9285 101.377 56.177 101.476 54.5773 101.54C52.2142 101.752 49.9369 102.525 47.9367 103.793C47.3334 104.193 46.7839 104.667 46.3015 105.206C45.7967 105.721 45.2279 106.315 45.3843 106.618C45.5407 106.922 45.9246 106.809 46.0953 106.802C47.5217 106.771 48.9455 106.667 50.3612 106.491C53.7952 105.912 57.0657 109.316 57.2861 109.592C58.2767 110.658 58.9809 111.956 59.3337 113.364C59.5968 114.501 59.7319 115.073 59.4546 115.342C58.1037 116.67 48.4842 109.119 45.754 106.929C40.9336 103.065 39.7391 101.589 34.3285 96.8282C22.313 86.2753 17.976 83.7748 11.4563 75.5388C10.2976 74.0649 9.22687 72.5248 8.24976 70.9263C3.98387 64.0747 -0.992993 56.0082 1.73006 48.2595C3.74925 42.3826 9.20958 39.6915 17.9689 35.3191C21.8082 33.3979 34.3854 27.4433 53.8236 25.6068C61.4108 24.8719 69.0519 24.8719 76.639 25.6068C95.6933 27.5705 108.811 34.0477 119.013 38.5613C137.584 46.7691 132.743 42.3544 177.677 57.9859C230.694 76.4288 261.38 87.1017 298.273 106.562C364.942 141.717 373.978 164.483 376.481 174.562C379.467 186.337 379.766 205.995 379.78 206.906ZM46.1522 107.423C46.3157 107.353 46.4863 107.289 46.6641 107.226C47.6158 106.876 48.6106 106.655 49.6217 106.569L45.6971 105.799C45.6971 105.799 45.3772 106.145 45.0572 106.505L46.1522 107.423Z" fill="black"/>
</svg>
