<svg width="31" height="30" viewBox="0 0 31 30" fill="none" xmlns="http://www.w3.org/2000/svg">
<g clip-path="url(#clip0_544:4423)">
<path d="M22.0126 0H8.25407C3.77627 0 0.133392 3.64288 0.133392 8.12068V21.8795C0.133392 26.357 3.77627 29.9999 8.25407 29.9999H22.0129C26.4904 29.9999 30.1333 26.357 30.1333 21.8795V8.12068C30.1333 3.64288 26.4904 0 22.0126 0ZM15.1334 23.2028C10.6102 23.2028 6.93048 19.5231 6.93048 15C6.93048 10.4768 10.6102 6.79709 15.1334 6.79709C19.6565 6.79709 23.3362 10.4768 23.3362 15C23.3362 19.5231 19.6565 23.2028 15.1334 23.2028ZM23.5324 8.73162C22.1957 8.73162 21.1085 7.64441 21.1085 6.30774C21.1085 4.97107 22.1957 3.88366 23.5324 3.88366C24.869 3.88366 25.9565 4.97107 25.9565 6.30774C25.9565 7.64441 24.869 8.73162 23.5324 8.73162Z" fill="black"/>
<path d="M15.1335 9.57446C12.142 9.57446 9.70793 12.0083 9.70793 15C9.70793 17.9915 12.142 20.4255 15.1335 20.4255C18.1252 20.4255 20.559 17.9915 20.559 15C20.559 12.0083 18.1252 9.57446 15.1335 9.57446Z" fill="black"/>
<path d="M23.5325 5.64262C23.1659 5.64262 22.8674 5.94109 22.8674 6.30776C22.8674 6.67442 23.1659 6.97289 23.5325 6.97289C23.8994 6.97289 24.1979 6.67466 24.1979 6.30776C24.1979 5.94086 23.8994 5.64262 23.5325 5.64262Z" fill="black"/>
</g>
<defs>
<clipPath id="clip0_544:4423">
<rect width="30" height="30" fill="white" transform="translate(0.133392)"/>
</clipPath>
</defs>
</svg>
