<svg width="31" height="30" viewBox="0 0 31 30" fill="none" xmlns="http://www.w3.org/2000/svg">
<g clip-path="url(#clip0_544:4427)">
<path d="M22.5918 0.0118713H7.65124C3.51166 0.0118713 0.133392 3.39014 0.133392 7.52971V22.4941C0.133392 26.6098 3.51166 29.9881 7.65124 29.9881H22.6156C26.7551 29.9881 30.1334 26.6098 30.1334 22.4702V7.52971C30.1096 3.39014 26.7313 0.0118713 22.5918 0.0118713ZM10.1255 24.2783H5.84315V11.9072H10.1255V24.2783ZM7.96051 10.0039C6.74719 10.0039 5.77178 9.02854 5.77178 7.8152C5.77178 6.60188 6.74719 5.62646 7.96051 5.62646C9.17385 5.62646 10.1493 6.60188 10.1493 7.8152C10.1255 9.02854 9.15001 10.0039 7.96051 10.0039ZM24.4237 24.2783H24.3998H20.8313V18.2831C20.8313 16.8319 20.6409 14.9762 18.6663 14.9762C16.6441 14.9762 16.311 16.5464 16.311 18.1879V24.2783H12.7425V11.9072H16.0731V13.5726H16.1683C16.6917 12.6209 17.905 11.8834 19.8083 11.8834C23.7337 11.8834 24.4237 14.1435 24.4237 17.498V24.2783Z" fill="black"/>
</g>
<defs>
<clipPath id="clip0_544:4427">
<rect width="30" height="30" fill="white" transform="translate(0.133392)"/>
</clipPath>
</defs>
</svg>
