<svg width="31" height="30" viewBox="0 0 31 30" fill="none" xmlns="http://www.w3.org/2000/svg">
<g clip-path="url(#clip0_618_4385)">
<path d="M20.0204 10.8623C23.5212 14.3667 23.4731 19.9852 20.0415 23.4359C20.035 23.4429 20.0274 23.4506 20.0204 23.4576L16.0829 27.3951C12.61 30.8679 6.95988 30.8675 3.48756 27.3951C0.0147068 23.9228 0.0147068 18.272 3.48756 14.7998L5.66174 12.6256C6.2383 12.049 7.23123 12.4322 7.26099 13.247C7.29896 14.2854 7.48517 15.3287 7.82877 16.3362C7.94513 16.6773 7.86199 17.0546 7.60711 17.3095L6.84029 18.0763C5.19814 19.7185 5.14664 22.3924 6.77261 24.0506C8.41464 25.7251 11.1136 25.7351 12.7682 24.0804L16.7057 20.1435C18.3575 18.4917 18.3506 15.8218 16.7057 14.1769C16.4889 13.9605 16.2704 13.7923 16.0998 13.6748C15.9791 13.5919 15.8794 13.482 15.8088 13.3538C15.7381 13.2255 15.6984 13.0825 15.6927 12.9362C15.6695 12.317 15.8889 11.679 16.3782 11.1898L17.6118 9.95607C17.9353 9.63257 18.4428 9.59285 18.8179 9.85464C19.2475 10.1546 19.6499 10.4918 20.0204 10.8623V10.8623ZM28.2783 2.60396C24.8059 -0.868423 19.1558 -0.868892 15.683 2.60396L11.7455 6.54146C11.7384 6.54849 11.7308 6.55611 11.7244 6.56314C8.29277 10.0138 8.24466 15.6323 11.7455 19.1368C12.1159 19.5072 12.5183 19.8444 12.9479 20.1443C13.323 20.4061 13.8305 20.3664 14.154 20.0429L15.3876 18.8092C15.8768 18.32 16.0962 17.6819 16.073 17.0628C16.0674 16.9165 16.0277 16.7735 15.957 16.6452C15.8863 16.517 15.7867 16.407 15.666 16.3242C15.4953 16.2067 15.2769 16.0385 15.0601 15.8221C13.4151 14.1772 13.4082 11.5073 15.0601 9.85546L18.9975 5.91855C20.6522 4.26392 23.3511 4.27388 24.9931 5.94843C26.6191 7.60663 26.5677 10.2805 24.9255 11.9227L24.1587 12.6895C23.9038 12.9443 23.8206 13.3217 23.937 13.6628C24.2806 14.6703 24.4668 15.7135 24.5048 16.7519C24.5346 17.5668 25.5275 17.95 26.104 17.3734L28.2782 15.1992C31.7511 11.727 31.7511 6.07622 28.2783 2.60396V2.60396Z" fill="black"/>
</g>
<defs>
<clipPath id="clip0_618_4385">
<rect width="30" height="30" fill="white" transform="translate(0.883423)"/>
</clipPath>
</defs>
</svg>
