<svg width="31" height="30" viewBox="0 0 31 30" fill="none" xmlns="http://www.w3.org/2000/svg">
<g clip-path="url(#clip0_544:4429)">
<path d="M26.5743 20.7747C31.3205 16.0284 31.3204 8.30569 26.5743 3.55944C21.8281 -1.18681 14.1054 -1.18681 9.35928 3.55944C5.33274 7.58599 4.72292 13.5745 7.52818 18.2509C7.52818 18.2509 7.72969 18.5889 7.45754 18.8609C5.90496 20.4133 1.24696 25.0715 1.24696 25.0715C0.0107927 26.3075 -0.283486 28.036 0.812738 29.1324L1.00148 29.321C2.09771 30.4174 3.82627 30.1232 5.06233 28.887C5.06233 28.887 9.71048 24.2388 11.2599 22.6895C11.5451 22.4043 11.883 22.6058 11.883 22.6058C16.5593 25.411 22.5478 24.8012 26.5743 20.7747ZM11.6066 18.5273C8.09964 15.0203 8.09973 9.31406 11.6067 5.80707C15.1137 2.30018 20.8199 2.30008 24.3268 5.80707C27.8338 9.31397 27.8338 15.0203 24.3268 18.5273C20.8198 22.0341 15.1137 22.0341 11.6066 18.5273Z" fill="black"/>
<path d="M12.3829 11.4449C12.2197 11.4449 12.0538 11.4128 11.8938 11.3452C11.2549 11.0748 10.956 10.3376 11.2264 9.69863C12.926 5.68224 17.5761 3.79741 21.5924 5.49698C22.2314 5.76738 22.5303 6.50458 22.2599 7.14358C21.9894 7.78259 21.2524 8.08131 20.6132 7.811C17.8729 6.65147 14.6999 7.9375 13.5405 10.6777C13.3377 11.157 12.8724 11.4449 12.3829 11.4449Z" fill="black"/>
</g>
<defs>
<clipPath id="clip0_544:4429">
<rect width="30" height="30" fill="white" transform="translate(0.133392)"/>
</clipPath>
</defs>
</svg>
