<svg width="31" height="30" viewBox="0 0 31 30" fill="none" xmlns="http://www.w3.org/2000/svg">
<g clip-path="url(#clip0_618_4387)">
<path d="M30.3175 13.664L17.2194 0.565887C16.4652 -0.188629 15.2419 -0.188629 14.4871 0.565887L11.7671 3.28619L15.2174 6.73653C16.0192 6.46554 16.9386 6.64739 17.5775 7.28633C18.2204 7.92952 18.4006 8.85674 18.1228 9.66154L21.4483 12.9868C22.2531 12.7093 23.1806 12.8886 23.8235 13.5324C24.7213 14.4299 24.7213 15.8851 23.8235 16.7832C22.925 17.6817 21.4702 17.6817 20.5714 16.7832C19.8962 16.1074 19.7291 15.1149 20.0715 14.283L16.97 11.1817V19.3426C17.1887 19.451 17.3954 19.5956 17.5775 19.7775C18.4754 20.6753 18.4754 22.1301 17.5775 23.0293C16.6797 23.9268 15.2239 23.9268 14.3268 23.0293C13.4289 22.1301 13.4289 20.6753 14.3268 19.7775C14.5488 19.5558 14.8057 19.388 15.0799 19.2757V11.039C14.8057 10.927 14.5494 10.7605 14.3268 10.5375C13.6467 9.85776 13.4831 8.85936 13.8321 8.0242L10.4308 4.62218L1.4493 13.6032C0.694798 14.3584 0.694798 15.5818 1.4493 16.3363L14.5481 29.4344C15.3023 30.1885 16.5253 30.1885 17.2804 29.4344L30.3175 16.397C31.072 15.6425 31.072 14.4182 30.3175 13.664Z" fill="#000"/>
</g>
<defs>
<clipPath id="clip0_618_4387">
<rect width="30" height="30" fill="#000" transform="translate(0.883423)"/>
</clipPath>
</defs>
</svg>
