<svg width="30" height="30" viewBox="0 0 30 30" fill="none" xmlns="http://www.w3.org/2000/svg">
<path d="M15 0C6.72911 0 0 6.72911 0 15C0 23.2709 6.72911 30 15 30C17.6376 30 20.2313 29.306 22.5018 27.9923L20.625 24.7458C18.924 25.73 16.9784 26.25 15 26.25C8.79641 26.25 3.74998 21.2036 3.74998 15C3.74998 8.79641 8.79641 3.74998 15 3.74998C21.2036 3.74998 26.25 8.79641 26.25 15V16.6333C26.25 17.8601 25.4618 18.75 24.375 18.75C23.3413 18.75 22.5 17.9086 22.5 16.875V9.37499H19.908C18.589 8.22266 16.8849 7.49997 15 7.49997C10.8646 7.49997 7.49997 10.8646 7.49997 15C7.49997 19.1354 10.8646 22.5 15 22.5C16.9693 22.5 18.7498 21.7212 20.0894 20.4754C21.1221 21.7025 22.6494 22.5 24.375 22.5C27.529 22.5 30 19.9229 30 16.6333V15C30 6.72911 23.2709 0 15 0ZM15 18.75C12.9318 18.75 11.25 17.0681 11.25 15C11.25 12.9318 12.9319 11.25 15 11.25C17.0682 11.25 18.75 12.9319 18.75 15C18.75 17.0682 17.0682 18.75 15 18.75Z" fill="black"/>
</svg>
