<svg width="37" height="37" viewBox="0 0 37 37" fill="none" xmlns="http://www.w3.org/2000/svg">
<g clip-path="url(#clip0)">
<path d="M19.7218 0.484937C18.7239 -0.175257 17.4222 -0.160065 16.4395 0.524665L1.73533 10.7664C0.95128 11.3133 0.483887 12.2071 0.483887 13.1641V24.1993C0.483887 25.1808 0.975818 26.0957 1.79492 26.6367L16.7398 36.5162C17.7167 37.1624 18.9856 37.1624 19.9625 36.5162L35.2042 26.4463C36.0221 25.9053 36.5152 24.9903 36.5152 24.0088V13.1665C36.5152 12.1861 36.0233 11.2712 35.2053 10.7302L19.7218 0.484937ZM31.1063 12.4385L25.4731 16.2209L20.1903 12.3789L20.1565 4.82234L31.1063 12.4385ZM16.3344 4.82935V12.2247L10.9208 16.0106L5.52122 12.3894L16.3344 4.82935ZM4.04075 16.0339L7.53568 18.3756L4.04075 20.8212V16.0339ZM16.4267 31.8003L5.52355 24.4879L10.9699 20.681L16.4267 24.3418V31.8003ZM14.3561 18.3148L17.8861 15.8458L21.998 18.5485L18.3535 20.9965L14.3561 18.3148ZM20.278 31.8003V24.3395L25.4929 20.8446L31.1075 24.5358L20.278 31.8003ZM32.6639 20.9474L28.9621 18.5146L32.6639 16.0316V20.9474Z" fill="black"/>
</g>
<defs>
<clipPath id="clip0">
<rect width="37" height="37" fill="white"/>
</clipPath>
</defs>
</svg>
