<svg width="37" height="37" viewBox="0 0 37 37" fill="none" xmlns="http://www.w3.org/2000/svg">
<g clip-path="url(#clip0)">
<path d="M13.3452 29.7494C13.088 29.7973 12.9756 29.918 13.0078 30.1106C13.0399 30.3032 13.1844 30.3676 13.4413 30.3032C13.6986 30.2391 13.8109 30.1264 13.7786 29.9659C13.7467 29.7894 13.6021 29.717 13.3452 29.7494Z" fill="black"/>
<path d="M11.9723 29.9422C11.7153 29.9422 11.5869 30.0301 11.5869 30.2071C11.5869 30.4158 11.7235 30.5039 11.9964 30.4718C12.2534 30.4718 12.3819 30.3835 12.3819 30.2071C12.3819 29.9986 12.2453 29.9099 11.9723 29.9422Z" fill="black"/>
<path d="M10.0935 29.8694C10.0294 30.0462 10.1338 30.1663 10.4066 30.2309C10.6475 30.3268 10.8001 30.2788 10.8642 30.0863C10.9125 29.9098 10.808 29.7817 10.5511 29.7009C10.3102 29.6368 10.1577 29.6923 10.0935 29.8694Z" fill="black"/>
<path d="M34.9644 2.0353C33.6074 0.678516 31.9738 0 30.0624 0H6.93746C5.02661 0 3.39241 0.678516 2.0353 2.0353C0.678517 3.39233 0 5.02652 0 6.93745V30.0627C0 31.9737 0.678517 33.6077 2.0353 34.9645C3.39233 36.3215 5.02661 37.0001 6.93746 37.0001H12.3333C12.6863 37.0001 12.9515 36.9879 13.1281 36.9643C13.3046 36.94 13.4811 36.8355 13.6578 36.6507C13.8347 36.4662 13.9228 36.1971 13.9228 35.8439C13.9228 35.796 13.9185 35.2494 13.9106 34.2057C13.9024 33.1616 13.8985 32.3346 13.8985 31.7243L13.3444 31.8207C12.9911 31.8849 12.5455 31.9131 12.0074 31.905C11.4696 31.8969 10.9114 31.8409 10.3334 31.7365C9.75505 31.6319 9.21726 31.3911 8.71939 31.0141C8.22176 30.6363 7.8685 30.1427 7.65968 29.5326L7.41871 28.9782C7.25815 28.6092 7.00538 28.1995 6.66004 27.7502C6.31471 27.3004 5.9655 26.9952 5.61223 26.8346L5.44357 26.7141C5.33127 26.6339 5.22691 26.5371 5.13047 26.4248C5.0342 26.3122 4.96198 26.1997 4.9138 26.0876C4.86563 25.975 4.90562 25.8826 5.0342 25.8101C5.16278 25.738 5.3954 25.7022 5.7328 25.7022L6.21439 25.7743C6.53568 25.8385 6.9329 26.031 7.4069 26.3524C7.88056 26.6735 8.26994 27.091 8.57511 27.6047C8.94466 28.2633 9.38989 28.7648 9.91206 29.1101C10.4338 29.4558 10.9599 29.6284 11.4897 29.6284C12.0196 29.6284 12.4772 29.5883 12.8628 29.5083C13.2479 29.4278 13.6093 29.3071 13.9467 29.1465C14.0912 28.0707 14.4848 27.2432 15.1269 26.6651C14.2116 26.5687 13.3887 26.4243 12.6578 26.2315C11.9273 26.0386 11.1724 25.7257 10.3937 25.2919C9.61457 24.8582 8.96828 24.3206 8.45437 23.6779C7.94055 23.0351 7.51886 22.1921 7.1899 21.1486C6.86076 20.1045 6.69615 18.8999 6.69615 17.535C6.69615 15.592 7.33071 13.9377 8.59932 12.5728C8.00501 11.1115 8.06112 9.47366 8.76781 7.65883C9.23355 7.51422 9.92421 7.62272 10.8395 7.98408C11.7549 8.3457 12.4252 8.65492 12.8509 8.91149C13.2766 9.16815 13.6177 9.38516 13.8747 9.562C15.3685 9.14444 16.9101 8.93571 18.4998 8.93571C20.0895 8.93571 21.6313 9.14444 23.1252 9.562L24.0405 8.98389C24.6671 8.59831 25.4056 8.24504 26.2569 7.92401C27.108 7.60289 27.7583 7.51447 28.2081 7.65908C28.9305 9.47392 28.9952 11.1117 28.4004 12.573C29.669 13.938 30.3038 15.5923 30.3038 17.5353C30.3038 18.9004 30.1391 20.109 29.81 21.1606C29.4811 22.2125 29.0558 23.0559 28.5335 23.6902C28.0117 24.3246 27.3612 24.8581 26.5825 25.2921C25.8035 25.7255 25.0488 26.039 24.3179 26.2313C23.5872 26.4242 22.7643 26.5691 21.849 26.6656C22.6835 27.3879 23.101 28.5278 23.101 30.0858V35.8432C23.101 36.1163 23.1408 36.3369 23.2211 36.5056C23.3019 36.6741 23.4302 36.7902 23.6068 36.8549C23.7841 36.9191 23.9399 36.9591 24.0768 36.9751C24.2136 36.9912 24.41 36.9993 24.667 36.9993H30.0628C31.9736 36.9993 33.6079 36.3208 34.9644 34.9637C36.3214 33.6067 36.9999 31.9724 36.9999 30.0616V6.93745C36.9997 5.02652 36.3212 3.39207 34.9644 2.0353Z" fill="black"/>
<path d="M7.32271 26.931C7.21041 27.011 7.22644 27.1395 7.37097 27.3162C7.53178 27.4767 7.66011 27.5009 7.75655 27.3883C7.86885 27.3083 7.85282 27.1798 7.70804 27.0028C7.54756 26.8585 7.41915 26.8343 7.32271 26.931Z" fill="black"/>
<path d="M6.52835 26.3288C6.48026 26.4414 6.53645 26.5378 6.69701 26.6178C6.82534 26.6984 6.93004 26.6825 7.01011 26.5699C7.0582 26.4573 7.00201 26.3608 6.84145 26.2802C6.6809 26.232 6.57653 26.2482 6.52835 26.3288Z" fill="black"/>
<path d="M8.06995 27.8705C7.92525 27.9505 7.92525 28.0955 8.06995 28.304C8.21448 28.513 8.35074 28.5691 8.47941 28.4725C8.62402 28.36 8.62402 28.2074 8.47941 28.0147C8.35108 27.8064 8.21448 27.7577 8.06995 27.8705Z" fill="black"/>
<path d="M8.91303 28.9542C8.76842 29.0829 8.80031 29.2349 9.00939 29.4121C9.20184 29.6044 9.36248 29.6286 9.49098 29.4838C9.61956 29.3556 9.58742 29.2032 9.39463 29.0265C9.20218 28.8341 9.04153 28.8098 8.91303 28.9542Z" fill="black"/>
</g>
<defs>
<clipPath id="clip0">
<rect width="37" height="37" fill="white"/>
</clipPath>
</defs>
</svg>
