<svg width="36" height="30" viewBox="0 0 36 30" fill="none" xmlns="http://www.w3.org/2000/svg">
<g clip-path="url(#clip0_544:4471)">
<path d="M8.05582 10.6818C8.05582 10.6818 8.35031 18.6062 8.94186 18.8995C8.94186 18.8995 7.16913 17.1389 6.87401 19.4865C6.98419 20.9512 7.35278 21.5696 7.68658 21.8584C7.83737 21.9865 8.14797 22.1958 8.34709 22.6157C8.48176 22.8987 8.45341 23.0415 8.63514 23.3053C8.77864 23.5307 8.98729 23.7079 9.23378 23.8136C9.41099 23.8827 9.53277 23.8744 10.1237 23.8884L11.3049 25.3558L13.9637 27.9973L16.6224 28.8781C16.6224 28.8781 22.2351 28.2911 22.5308 27.4102C22.8266 26.5292 26.075 23.0082 26.075 23.0082V20.546C26.075 20.546 26.961 21.247 27.552 20.3667C28.1429 19.4865 28.438 18.6062 28.438 16.8457C28.438 15.0851 26.961 15.0851 26.961 15.0851C26.961 15.0851 26.3702 14.7913 25.7792 15.6715C25.1883 16.5518 24.8932 13.0307 24.8932 13.0307L24.3029 11.2676L23.1211 8.62616L21.349 6.86562L15.4387 6.57304L9.82593 7.45332L7.46298 9.50773L8.05582 10.6818Z" fill="black"/>
<path d="M27.0867 21.7892C26.9314 21.9442 26.7052 21.9372 26.6356 21.932C26.3012 21.9064 26.0351 21.612 26.0731 21.5409C26.1111 21.4699 26.4468 21.6933 26.6634 21.5409C26.8619 21.4013 26.9559 20.9871 26.8412 20.6811C26.7941 20.5569 26.7123 20.4506 26.7523 20.3111C26.7728 20.2349 26.8309 20.1375 26.9102 20.1312C26.9894 20.1247 27.048 20.2073 27.0983 20.2752C27.179 20.3898 27.2324 20.5212 27.2542 20.6593C27.3161 20.9536 27.3022 21.2586 27.2136 21.546C27.1922 21.6363 27.1486 21.7198 27.0867 21.7892Z" fill="black"/>
<path d="M27.3051 19.9436C27.4069 19.9436 27.4895 19.8616 27.4895 19.7605C27.4895 19.6593 27.4069 19.5774 27.3051 19.5774C27.2034 19.5774 27.1209 19.6593 27.1209 19.7605C27.1209 19.8616 27.2034 19.9436 27.3051 19.9436Z" fill="black"/>
<path d="M9.68486 24.0792C9.69646 24.1209 9.74925 24.3226 9.922 24.416C9.954 24.4372 9.99007 24.4519 10.028 24.4591C10.0657 24.4662 10.1047 24.4657 10.1423 24.4576C10.2068 24.4371 10.2216 24.3936 10.2777 24.3936C10.3081 24.3952 10.3374 24.4056 10.3619 24.4234C10.3866 24.4413 10.4054 24.4659 10.4162 24.4941C10.4498 24.6016 10.3022 24.7623 10.1481 24.8225C9.87687 24.9288 9.60044 24.7175 9.57918 24.7009C9.4213 24.5761 9.37361 24.4192 9.30467 24.1939C9.25247 24.0223 9.17901 23.7803 9.29564 23.5863C9.31433 23.5549 9.37555 23.4537 9.46512 23.4518C9.55469 23.4499 9.62235 23.5511 9.63459 23.5697C9.73838 23.7252 9.62106 23.8386 9.68486 24.0792Z" fill="black"/>
<path d="M8.7943 10.5353C8.60807 10.9302 8.44182 11.2836 8.49852 11.7093L9.08943 12.8829C9.08943 12.8829 8.96893 13.313 8.4386 13.2445C8.4386 13.2445 8.20339 13.7637 8.7943 14.3502C9.38521 14.9366 9.08943 16.6319 9.08943 16.6319C9.08943 16.6319 9.08943 18.1683 9.38521 18.459C9.38521 18.459 9.08943 19.6331 9.68034 20.5134V21.7669C9.68034 21.7669 8.7943 20.5153 8.7943 19.3418C8.7943 18.1683 7.31929 18.1658 7.31929 18.7528C7.31929 19.3399 7.31929 20.5134 7.61442 21.1004C7.90955 21.6875 6.13747 21.6875 6.13747 21.6875C6.13747 21.6875 7.31929 21.1004 7.02157 20.8066C6.72387 20.5128 6.43066 20.8066 6.43066 20.8066C6.43066 20.8066 6.13553 19.9263 6.43066 19.9263C6.7258 19.9263 6.43066 18.4583 6.43066 18.4583C6.43066 18.4583 5.54463 18.7522 5.54463 19.3392C5.54463 19.3392 5.54463 18.4583 6.13553 18.1651C6.72644 17.8719 6.43066 16.4039 6.13553 16.4039C5.84041 16.4039 4.95372 17.578 4.95372 18.1651C4.95372 18.7522 4.65859 16.6978 4.65859 16.6978C4.65859 16.6978 3.18164 17.2848 3.47677 16.6978C3.47677 16.6978 4.65859 16.4039 4.36281 15.8175C4.06703 15.2311 4.36281 14.0563 4.36281 14.0563C4.36281 14.0563 3.69393 13.6639 3.4381 14.007C3.18228 14.3502 4.36281 12.2957 4.65859 12.5889C4.95436 12.8822 5.84041 11.1217 5.84041 11.1217C6.11105 10.7516 6.12329 10.2856 5.89325 9.9968C5.63548 9.67677 5.17539 9.68955 5.08775 9.69399C4.9298 9.7036 4.77586 9.74728 4.63667 9.82206C4.74629 9.62112 4.91065 9.45499 5.11095 9.34251C5.61165 9.07432 6.19804 9.28622 6.2599 9.11012C6.28826 9.02821 6.18194 8.92514 6.13553 8.87968C5.82107 8.57302 5.2714 8.76636 5.24756 8.77468C5.45935 8.50056 5.73911 8.28571 6.0595 8.15114C6.45739 7.98801 6.89709 7.95439 7.31542 8.05511C7.30897 7.60697 7.20008 7.45204 7.09246 7.40338C6.75093 7.24782 6.18644 8.02053 5.54269 7.89441C5.45827 7.87777 5.41382 7.85473 5.39319 7.81695C5.29847 7.65754 5.61615 7.31696 6.1336 6.72029C6.1336 6.72029 7.31542 5.84002 7.61055 5.84002C7.90568 5.84002 7.61248 5.24976 7.31929 5.24976C7.02609 5.24976 9.38714 4.6627 9.68227 5.83682C10.52 5.92453 11.1644 5.90084 11.4312 5.84002C11.6193 5.79905 11.8178 5.73887 11.821 5.73887C11.8854 5.71902 12.0201 5.67869 12.1722 5.62108C12.3133 5.5673 12.4299 5.51352 12.932 5.24976C12.932 5.24976 13.818 5.24976 14.4089 5.83682C14.9998 6.42388 16.1809 6.13067 16.1809 6.13067C16.1809 6.13067 20.6125 5.54361 23.2693 8.18507C25.9261 10.8266 28.5843 13.4699 28.5843 14.644C28.5843 15.8182 28.2892 15.8182 28.2892 15.8182C28.2892 15.8182 27.5764 14.6306 26.1626 16.1049C26.1626 16.1049 26.8148 16.9916 27.1099 16.6984C27.405 16.4052 26.693 17.7266 26.1626 17.6523C25.6323 17.578 26.1626 18.6619 26.1626 18.6619C25.6342 18.402 25.428 18.0998 25.3378 17.8726C25.1806 17.4795 25.325 17.1984 25.3378 16.4046C25.3396 16.0376 25.3156 15.671 25.2663 15.3073C25.0859 14.0659 24.2694 13.7067 23.5651 12.2984C23.2885 11.7407 23.0896 11.1481 22.9742 10.5372C22.9742 10.5372 21.2021 7.89569 19.1343 8.48276C17.0664 9.06979 17.6573 9.06979 17.6573 9.06979C16.4124 8.69064 15.1187 8.49289 13.8167 8.48276C13.3882 8.48276 10.4659 8.48276 9.38585 9.65692C9.15019 9.92221 8.95125 10.2176 8.7943 10.5353ZM26.5512 21.0985C26.5512 21.0985 26.3972 21.8405 26.1646 21.7631C25.9319 21.6856 26.1646 23.023 26.1646 23.023L25.8778 23.2214C25.836 23.4416 25.8173 23.6792 25.9261 23.7419C25.9628 23.763 25.9906 23.7502 26.0131 23.7701C26.142 23.8911 25.8843 24.3673 25.6304 24.6221C25.3352 24.9153 24.4485 26.0895 24.4485 26.0895C24.4485 26.0895 23.8583 26.9697 22.6764 27.8507C21.4947 28.7316 21.4947 29.0241 20.3129 29.6112C19.131 30.1982 16.4729 29.905 16.1778 29.905C15.8827 29.905 13.8141 29.318 13.2232 28.7309C12.6323 28.1439 11.4511 26.6765 11.4511 26.6765C11.4511 26.6765 10.8602 25.7963 10.5644 24.9153C10.3994 24.4142 10.2022 23.9241 9.97421 23.448C9.95916 23.0405 9.85838 22.6405 9.67841 22.2739C9.67841 22.2739 9.63073 21.8898 9.67841 20.5134C9.67841 20.5134 9.97421 21.9807 10.2693 21.9807C10.5644 21.9807 10.8416 21.7054 10.8596 21.6881C10.8474 21.7079 10.5709 22.1644 10.8596 22.5089C11.1483 22.8533 12.0414 22.5677 12.0414 22.5677C12.0414 22.5677 12.6317 24.3283 12.9274 24.3283C13.2232 24.3283 12.9274 22.5677 13.5184 21.9807C13.5184 21.9807 14.1995 20.6689 15.8813 19.9263C15.9915 19.8777 16.2035 19.7246 16.3034 19.7983C16.3251 19.816 16.3398 19.8407 16.3453 19.8681C16.4454 19.8875 16.5475 19.8961 16.6494 19.8936C16.7281 19.8936 16.8467 19.8757 17.156 19.795C17.3252 19.7512 17.4916 19.697 17.654 19.6324C17.654 19.6324 19.7219 19.3386 20.608 20.5128C20.608 20.5128 21.1989 20.2195 21.494 20.806C21.7891 21.3924 22.3801 21.6868 22.085 22.8603C22.085 22.8603 23.2667 22.2732 23.2667 21.98V21.1004C23.2667 21.1004 23.5618 21.3936 23.8577 20.8066L24.4479 19.6331C24.4479 19.6331 24.7437 19.046 25.0388 19.046C25.3339 19.046 25.3346 17.8719 25.3346 17.8719C25.3346 17.8719 26.0989 18.231 26.1601 18.7848C26.2406 19.5642 26.3713 20.3376 26.5512 21.1004V21.0985ZM21.7924 23.1548C21.7924 22.5677 20.9057 21.9807 20.9547 21.765C21.0036 21.5492 20.0222 20.8047 19.4313 20.8047C18.8404 20.8047 17.6592 21.0985 16.7725 21.0985C15.8858 21.0985 15.293 21.9807 14.4076 22.5677C13.5222 23.1548 13.5209 24.3276 13.5209 24.3276C13.5209 24.3276 13.5209 24.9147 14.1118 25.7957C14.7028 26.6765 15.293 26.3821 15.293 26.3821C15.293 26.3821 16.4749 26.0889 17.0657 25.7957C17.6567 25.5025 15.8839 24.0344 15.8839 24.0344C17.3609 24.0344 20.3148 23.4474 19.7245 23.7412C19.1343 24.0351 19.4287 25.5018 19.7245 25.5018C20.0203 25.5018 20.9057 24.9147 21.2015 24.6215C21.4972 24.3283 21.7924 23.7419 21.7924 23.1548Z" fill="black"/>
<path d="M28.7202 10.4751C28.2299 10.696 27.5133 9.94432 26.8141 9.36109C25.9423 8.63192 23.7616 7.92258 19.4899 6.39764C15.8317 5.09099 14.0023 4.43799 13.5209 4.37205C12.5808 4.24401 11.5929 4.19599 11.2939 3.57116C10.9279 2.80677 11.7656 1.53662 12.6342 0.850325C13.1066 0.47773 14.5139 -0.452477 18.2469 0.263264C18.7824 0.365695 27.8304 2.20498 29.0295 7.58392C29.2448 8.54934 29.335 10.1978 28.7202 10.4751Z" fill="black"/>
<path d="M35.0855 18.7528C35.1075 20.5569 35.1216 21.6977 34.4946 22.2738C33.6814 23.0229 32.0401 22.4397 29.768 21.6868C29.768 21.6868 29.4716 21.6228 28.291 21.0998C27.9618 20.9538 27.657 20.8085 27.6022 20.5428C27.5654 20.3661 27.6563 20.2227 27.7498 20.0511C27.7498 20.0511 27.8245 19.9154 27.9282 19.6715C28.0636 19.3552 28.2015 19.046 28.2852 18.6471C28.313 18.5152 28.3246 18.418 28.3497 18.2227C28.3943 17.8617 28.4158 17.4981 28.4141 17.1343C28.4093 17.049 28.4093 16.9636 28.4141 16.8783C28.424 16.7953 28.4283 16.7116 28.427 16.628C28.427 16.578 28.4199 16.5416 28.4141 16.4942C28.4051 16.3853 28.3835 16.2779 28.3497 16.1741C28.3387 16.1446 28.3426 16.1606 28.2208 15.918C28.1699 15.8169 28.1712 15.8181 28.1564 15.7899C28.1081 15.6991 28.0547 15.6111 27.9966 15.5262C27.7388 15.1421 27.6686 14.9756 27.4063 14.646C27.0461 14.1933 26.9507 14.24 26.5196 13.7656C26.0743 13.2753 26.0873 13.1255 25.6336 12.5916C25.3614 12.2761 25.0651 11.9818 24.7475 11.7112C23.2742 10.4079 21.6931 9.23001 20.0209 8.19017C17.3145 6.67483 16.2441 6.26574 15.873 6.28238C15.5913 6.29797 15.3088 6.27099 15.0352 6.20236C14.8809 6.16272 14.7301 6.11069 14.5841 6.04679C13.5982 5.63002 13.3908 5.22734 12.9416 5.2952C12.9152 5.29905 12.7432 5.37587 12.399 5.52888C12.0079 5.703 11.9222 5.75359 11.7263 5.80288C11.5735 5.84129 11.5813 5.82209 11.1972 5.87842C10.7055 5.95013 10.6881 5.98277 10.4987 5.99174C10.3569 5.99878 10.0135 6.01542 9.68549 5.84193C9.28339 5.63002 9.19897 5.31184 8.79945 5.25487C8.74902 5.2476 8.6978 5.2476 8.64737 5.25487C8.38382 5.29648 8.33935 5.49814 8.06098 5.69276C7.76842 5.89699 7.66467 5.78047 7.47007 5.98597C7.34699 6.11401 7.31928 6.23501 7.17429 6.27983C7.05572 6.31632 7.02736 6.25101 6.87916 6.27983C6.76575 6.30159 6.79152 6.33809 6.49252 6.49813C6.41327 6.54211 6.33706 6.5913 6.2644 6.64537C6.24195 6.66258 6.22045 6.68096 6.19996 6.70043C6.1684 6.72988 6.11491 6.78686 6.01052 6.90082C5.94826 6.96109 5.88993 7.02524 5.83589 7.09287C5.74696 7.22091 5.75791 7.28494 5.69541 7.45266C5.59038 7.72987 5.45569 7.80413 5.48663 7.84767C5.56653 7.9597 6.52732 7.56086 6.75479 7.43346C6.82718 7.38972 6.91119 7.36874 6.9958 7.37328C7.03686 7.37758 7.07692 7.38861 7.11436 7.40593C7.18441 7.44484 7.24133 7.50341 7.27804 7.5743C7.3167 7.65369 7.28706 7.67033 7.32057 7.8944C7.3341 7.98595 7.34699 8.03716 7.32057 8.05509C7.29415 8.07302 7.26644 8.04805 7.19169 8.0282C7.13903 8.01717 7.08561 8.01011 7.03188 8.00707C6.93117 7.9949 6.82947 7.99297 6.72837 8.00132C6.68778 8.00515 6.66393 8.00964 6.60916 8.0186C6.3985 8.04954 6.19247 8.10608 5.99569 8.18697C5.95574 8.20426 5.93576 8.21258 5.90677 8.22731C5.77789 8.29132 5.71345 8.35535 5.553 8.50131C5.42025 8.6191 5.30104 8.71769 5.31199 8.7337C5.32295 8.74971 5.37643 8.72986 5.39641 8.72474C5.52293 8.69374 5.6545 8.68874 5.78305 8.71002C5.80495 8.71449 5.79013 8.71002 5.89774 8.74074C5.94355 8.74871 5.98831 8.7618 6.03114 8.7798C6.07173 8.80156 6.05692 8.8086 6.13939 8.87967C6.19739 8.9296 6.22832 8.94689 6.24701 8.99234C6.25301 9.00931 6.25796 9.02663 6.26183 9.04419C6.27214 9.08581 6.27729 9.1082 6.26828 9.12234C6.25925 9.13639 6.2599 9.12995 6.22638 9.15306C6.19288 9.17609 6.19546 9.17672 6.18515 9.18315C6.15615 9.19856 6.12269 9.20355 6.09042 9.1972C6.00536 9.18823 5.75598 9.1972 5.61099 9.203C5.39682 9.22222 5.19041 9.29228 5.00913 9.4072C4.95445 9.44346 4.90464 9.48642 4.86092 9.53527C4.81517 9.58195 4.76362 9.63578 4.77779 9.66325C4.79197 9.6908 4.82676 9.68056 4.84223 9.67992C4.97151 9.67711 5.10056 9.66769 5.22887 9.65173C5.54011 9.59926 5.83653 9.90778 5.8565 9.93279C5.94629 10.0294 6.01011 10.1471 6.04209 10.2747C6.06593 10.3777 6.07818 10.4296 6.05305 10.4539C5.93061 10.5743 5.05875 9.88992 4.8113 9.69143C4.37441 9.34122 4.26614 9.20745 3.77576 8.77595C2.68674 7.8195 2.29366 7.59287 1.70275 6.8464C1.59773 6.71282 1.50069 6.57323 1.41213 6.42835C1.02549 5.80736 0.574415 5.07626 0.821218 4.37396C1.00423 3.84131 1.49912 3.5974 2.29301 3.20111C2.64099 3.02699 3.78091 2.48729 5.54268 2.32084C6.23034 2.25424 6.92289 2.25424 7.61054 2.32084C9.33752 2.49882 10.5264 3.08588 11.4511 3.49497C13.1343 4.23888 12.6955 3.83875 16.7681 5.2555C21.5732 6.92707 24.3544 7.8944 27.6982 9.65817C33.7407 12.8444 34.5597 14.9078 34.7865 15.8213C35.0572 16.8885 35.0843 18.6702 35.0855 18.7528ZM4.84739 9.73621C4.86221 9.72986 4.87767 9.72406 4.89379 9.71835C4.98004 9.68663 5.07021 9.6666 5.16185 9.6588L4.80614 9.58902C4.80614 9.58902 4.77715 9.62038 4.74815 9.653L4.84739 9.73621Z" fill="black"/>
</g>
<defs>
<clipPath id="clip0_544:4471">
<rect width="34.4411" height="30" fill="white" transform="translate(0.692307)"/>
</clipPath>
</defs>
</svg>
