<svg width="37" height="37" viewBox="0 0 37 37" fill="none" xmlns="http://www.w3.org/2000/svg">
<path d="M26.9844 0H10.0155C4.49288 0 0 4.49288 0 10.0155V26.9847C0 32.507 4.49288 36.9999 10.0155 36.9999H26.9847C32.507 36.9999 36.9999 32.507 36.9999 26.9847V10.0155C36.9999 4.49288 32.507 0 26.9844 0ZM18.5 28.6168C12.9214 28.6168 8.38308 24.0785 8.38308 18.5C8.38308 12.9214 12.9214 8.38308 18.5 8.38308C24.0785 8.38308 28.6168 12.9214 28.6168 18.5C28.6168 24.0785 24.0785 28.6168 18.5 28.6168ZM28.8588 10.769C27.2102 10.769 25.8693 9.42811 25.8693 7.77955C25.8693 6.13099 27.2102 4.78985 28.8588 4.78985C30.5073 4.78985 31.8485 6.13099 31.8485 7.77955C31.8485 9.42811 30.5073 10.769 28.8588 10.769Z" fill="black"/>
<path d="M18.5001 11.8085C14.8106 11.8085 11.8086 14.8102 11.8086 18.5C11.8086 22.1895 14.8106 25.1915 18.5001 25.1915C22.1899 25.1915 25.1916 22.1895 25.1916 18.5C25.1916 14.8102 22.1899 11.8085 18.5001 11.8085Z" fill="black"/>
<path d="M28.8589 6.95923C28.4067 6.95923 28.0386 7.32734 28.0386 7.77956C28.0386 8.23178 28.4067 8.59989 28.8589 8.59989C29.3114 8.59989 29.6795 8.23207 29.6795 7.77956C29.6795 7.32705 29.3114 6.95923 28.8589 6.95923Z" fill="black"/>
</svg>
