<svg width="37" height="37" viewBox="0 0 37 37" fill="none" xmlns="http://www.w3.org/2000/svg">
<path d="M27.6987 0.0146484H9.27201C4.16653 0.0146484 0 4.18118 0 9.28665V27.7427C0 32.8188 4.16653 36.9853 9.27201 36.9853H27.728C32.8335 36.9853 37 32.8188 37 27.7133V9.28665C36.9707 4.18118 32.8041 0.0146484 27.6987 0.0146484ZM12.3236 29.9433H7.04203V14.6856H12.3236V29.9433ZM9.65345 12.3382C8.15702 12.3382 6.95401 11.1352 6.95401 9.63875C6.95401 8.14232 8.15702 6.93931 9.65345 6.93931C11.1499 6.93931 12.3529 8.14232 12.3529 9.63875C12.3236 11.1352 11.1205 12.3382 9.65345 12.3382ZM29.958 29.9433H29.9286H25.5274V22.5492C25.5274 20.7593 25.2926 18.4707 22.8573 18.4707C20.3632 18.4707 19.9524 20.4072 19.9524 22.4318V29.9433H15.5512V14.6856H19.659V16.7395H19.7764C20.4219 15.5658 21.9183 14.6562 24.2657 14.6562C29.1071 14.6562 29.958 17.4437 29.958 21.5809V29.9433Z" fill="black"/>
</svg>
