<svg width="39" height="30" viewBox="0 0 39 30" fill="none" xmlns="http://www.w3.org/2000/svg">
<g clip-path="url(#clip0_544:4450)">
<path d="M1.08294 3.21943C6.22967 7.57815 15.2606 15.2465 17.9149 17.6375C18.2712 17.9602 18.6534 18.1242 19.0501 18.1242C19.4461 18.1242 19.8276 17.9617 20.1831 17.6405C22.8397 15.2472 31.8706 7.57815 37.0174 3.21943C37.3378 2.94858 37.3867 2.47251 37.1273 2.14138C36.5276 1.37622 35.6334 0.9375 34.6751 0.9375H3.42516C2.46693 0.9375 1.57271 1.37622 0.97308 2.14146C0.713656 2.47251 0.762508 2.94858 1.08294 3.21943Z" fill="black"/>
<path d="M37.347 5.58149C37.0701 5.45258 36.7443 5.49755 36.5139 5.69443C30.8062 10.533 23.5217 16.735 21.2298 18.8002C19.9435 19.9613 18.1582 19.9613 16.8688 18.7986C14.4259 16.5975 6.24564 9.64335 1.58641 5.69435C1.35445 5.49748 1.02794 5.45405 0.753282 5.58141C0.477159 5.70966 0.300133 5.98586 0.300133 6.29025V25.9375C0.300133 27.661 1.70162 29.0625 3.42516 29.0625H34.6752C36.3986 29.0625 37.8001 27.661 37.8001 25.9375V6.29025C37.8001 5.98586 37.6231 5.70893 37.347 5.58149Z" fill="black"/>
</g>
<defs>
<clipPath id="clip0_544:4450">
<rect width="38.75" height="30" fill="white" transform="translate(0.133392)"/>
</clipPath>
</defs>
</svg>
