<svg width="37" height="37" viewBox="0 0 37 37" fill="none" xmlns="http://www.w3.org/2000/svg">
<g clip-path="url(#clip0)">
<path d="M34.9647 2.0353C33.6082 0.678516 31.974 0 30.0631 0H6.93795C5.0271 0 3.39282 0.678516 2.03579 2.0353C0.679005 3.39233 0.000488281 5.02652 0.000488281 6.93745V30.0624C0.000488281 31.9731 0.679005 33.6075 2.03579 34.9645C3.39282 36.3215 5.0271 37.0001 6.93795 37.0001H30.0629C31.9737 37.0001 33.608 36.3215 34.9644 34.9645C36.3215 33.6075 37 31.9732 37 30.0624V6.93745C36.9999 5.02652 36.3214 3.39207 34.9647 2.0353ZM28.3045 14.2364C28.3206 14.381 28.3288 14.5974 28.3288 14.8869C28.3288 16.236 28.1318 17.5889 27.7386 18.9456C27.3453 20.3028 26.743 21.6036 25.9317 22.8481C25.1212 24.0925 24.1536 25.1928 23.0296 26.1483C21.9054 27.1034 20.5566 27.8665 18.9825 28.4362C17.4091 29.0067 15.7226 29.292 13.9242 29.292C11.1301 29.292 8.54463 28.5367 6.1678 27.0278C6.55321 27.0757 6.9549 27.0999 7.37221 27.0999C9.70086 27.0999 11.7966 26.3773 13.6595 24.9315C12.5676 24.9159 11.5919 24.579 10.7328 23.9198C9.87349 23.2615 9.27546 22.4266 8.93814 21.4148C9.35553 21.4789 9.66863 21.5107 9.87737 21.5107C10.2306 21.5107 10.6403 21.4466 11.1058 21.3184C9.93356 21.0932 8.94608 20.5117 8.14311 19.5722C7.33998 18.6326 6.93854 17.5608 6.93854 16.3564V16.3083C7.78942 16.7095 8.59239 16.9182 9.34726 16.9345C7.88586 15.9547 7.1552 14.5497 7.1552 12.719C7.1552 11.8196 7.3879 10.9686 7.85363 10.1656C9.12216 11.7234 10.6641 12.9678 12.4785 13.8992C14.2931 14.8305 16.2365 15.3527 18.308 15.465C18.2278 15.1599 18.1876 14.7743 18.1876 14.3087C18.1876 12.9114 18.6814 11.7192 19.6691 10.7315C20.6565 9.74382 21.849 9.24982 23.246 9.24982C24.7237 9.24982 25.9525 9.77993 26.932 10.8399C28.0401 10.6312 29.1165 10.2214 30.1601 9.61144C29.7587 10.8477 29.0115 11.7872 27.92 12.4296C28.9635 12.2848 29.9348 12.012 30.8339 11.6105C30.1596 12.6383 29.3162 13.5135 28.3045 14.2364Z" fill="black"/>
</g>
<defs>
<clipPath id="clip0">
<rect width="37" height="37" fill="white"/>
</clipPath>
</defs>
</svg>
