<svg width="31" height="30" viewBox="0 0 31 30" fill="none" xmlns="http://www.w3.org/2000/svg">
<g clip-path="url(#clip0_544:4502)">
<path d="M29.2333 1.65024C28.1334 0.550148 26.8084 0 25.259 0H6.50888C4.95954 0 3.63445 0.550148 2.53416 1.65024C1.43406 2.75054 0.883911 4.07556 0.883911 5.62496V24.3749C0.883911 25.9241 1.43406 27.2493 2.53416 28.3496C3.63445 29.4499 4.95954 30.0001 6.50888 30.0001H25.2588C26.8081 30.0001 28.1332 29.4499 29.233 28.3496C30.3334 27.2493 30.8835 25.9242 30.8835 24.3749V5.62496C30.8834 4.07556 30.3333 2.75033 29.2333 1.65024ZM23.8331 11.543C23.8462 11.6603 23.8528 11.8357 23.8528 12.0705C23.8528 13.1643 23.6931 14.2613 23.3743 15.3613C23.0554 16.4617 22.567 17.5164 21.9092 18.5255C21.2521 19.5345 20.4675 20.4266 19.5562 21.2013C18.6447 21.9757 17.551 22.5945 16.2747 23.0564C14.999 23.5189 13.6316 23.7503 12.1734 23.7503C9.90792 23.7503 7.81159 23.1379 5.88443 21.9144C6.19693 21.9533 6.52262 21.9729 6.86098 21.9729C8.74908 21.9729 10.4483 21.387 11.9588 20.2147C11.0735 20.2021 10.2824 19.9289 9.58579 19.3944C8.88905 18.8607 8.40416 18.1837 8.13066 17.3634C8.46908 17.4153 8.72294 17.4411 8.89219 17.4411C9.1786 17.4411 9.51079 17.3891 9.88822 17.2852C8.93775 17.1026 8.13709 16.6311 7.48604 15.8694C6.83485 15.1075 6.50936 14.2385 6.50936 13.2619V13.2229C7.19926 13.5482 7.85032 13.7175 8.46238 13.7307C7.27746 12.9362 6.68503 11.7971 6.68503 10.3127C6.68503 9.58346 6.8737 8.89346 7.25132 8.24238C8.27986 9.50546 9.53008 10.5144 11.0012 11.2696C12.4725 12.0247 14.0482 12.4481 15.7278 12.5392C15.6628 12.2918 15.6302 11.9792 15.6302 11.6016C15.6302 10.4687 16.0306 9.50205 16.8314 8.70122C17.632 7.90039 18.5989 7.49985 19.7316 7.49985C20.9298 7.49985 21.9261 7.92967 22.7203 8.78911C23.6187 8.61989 24.4915 8.28762 25.3377 7.79306C25.0122 8.79543 24.4064 9.55719 23.5214 10.0781C24.3674 9.96065 25.155 9.73946 25.884 9.41392C25.3372 10.2473 24.6534 10.9569 23.8331 11.543Z" fill="black"/>
</g>
<defs>
<clipPath id="clip0_544:4502">
<rect width="30" height="30" fill="white" transform="translate(0.883423)"/>
</clipPath>
</defs>
</svg>
