<svg width="380" height="358" viewBox="0 0 380 358" fill="none" xmlns="http://www.w3.org/2000/svg">
<path d="M81.5518 117.856C81.5518 117.856 84.801 205.288 91.3278 208.524C91.3278 208.524 71.7687 189.099 68.5124 215.001C69.7282 231.162 73.795 237.985 77.4779 241.171C79.1416 242.584 82.5685 244.894 84.7654 249.527C86.2514 252.649 85.9386 254.224 87.9435 257.135C89.5269 259.622 91.8289 261.577 94.5485 262.743C96.5037 263.506 97.8475 263.414 104.367 263.569L117.399 279.759L146.735 308.903L176.07 318.622C176.07 318.622 237.996 312.145 241.259 302.426C244.523 292.706 280.363 253.857 280.363 253.857V226.691C280.363 226.691 290.139 234.425 296.659 224.713C303.179 215.001 306.435 205.288 306.435 185.864C306.435 166.439 290.139 166.439 290.139 166.439C290.139 166.439 283.62 163.197 277.1 172.909C270.58 182.622 267.324 143.772 267.324 143.772L260.811 124.319L247.772 95.1753L228.22 75.7507L163.009 72.5226L101.082 82.235L75.0108 104.902L81.5518 117.856Z" fill="#E2A16F"/>
<path opacity="0.11" d="M286.961 176.314C287.359 176.151 292.649 174.047 296.915 177.02C297.434 177.388 299.923 179.139 300.47 181.965C300.776 183.582 300.228 184.331 300.47 186.203C300.72 187.917 301.43 189.532 302.525 190.879C302.525 190.879 303.314 182.064 303.314 180.213C303.329 179.14 303.019 178.087 302.425 177.19C301.667 176.506 300.87 175.866 300.036 175.276C298.788 174.31 297.325 173.653 295.77 173.361C294.105 173.115 292.404 173.315 290.843 173.941C289.401 174.462 288.08 175.269 286.961 176.314V176.314Z" fill="#19535F"/>
<path opacity="0.1" d="M291.412 189.198C291.412 189.198 297.932 186.747 298.927 194.396C299.923 202.046 293.403 202.018 290.147 205.288L286.883 208.524C286.883 208.524 280.371 205.288 283.627 198.811C286.883 192.334 285.618 193.21 285.618 193.21C285.618 193.21 289.421 189.304 291.412 189.198Z" fill="#19535F"/>
<path opacity="0.11" d="M297.626 208.1C299.233 206.129 302.006 202.491 302.603 200.005C302.681 199.687 302.674 199.581 302.66 199.581C302.646 199.581 300.562 212.804 297.626 212.408C297.164 212.345 296.147 212.246 295.699 211.54C295.479 211.136 295.416 210.666 295.522 210.219C295.77 208.771 297.477 208.156 297.626 208.1Z" fill="#19535F"/>
<path d="M291.526 240.408C289.812 242.118 287.317 242.04 286.549 241.983C282.859 241.701 279.923 238.452 280.342 237.668C280.762 236.884 284.466 239.349 286.855 237.668C289.044 236.128 290.083 231.558 288.817 228.181C288.298 226.811 287.395 225.638 287.836 224.099C288.063 223.258 288.703 222.184 289.578 222.114C290.452 222.043 291.099 222.954 291.654 223.703C292.544 224.967 293.133 226.417 293.374 227.941C294.057 231.188 293.903 234.553 292.926 237.724C292.69 238.72 292.209 239.642 291.526 240.408Z" fill="#FEFEFE"/>
<path d="M293.936 220.044C295.059 220.044 295.969 219.14 295.969 218.024C295.969 216.908 295.059 216.004 293.936 216.004C292.813 216.004 291.903 216.908 291.903 218.024C291.903 219.14 292.813 220.044 293.936 220.044Z" fill="#FEFEFE"/>
<path d="M99.5254 265.674C99.6534 266.134 100.236 268.359 102.142 269.39C102.495 269.624 102.893 269.786 103.311 269.865C103.728 269.944 104.158 269.938 104.573 269.849C105.284 269.623 105.448 269.143 106.066 269.143C106.402 269.161 106.725 269.275 106.996 269.472C107.268 269.669 107.476 269.94 107.595 270.252C107.965 271.438 106.337 273.211 104.637 273.875C101.644 275.048 98.594 272.717 98.3594 272.533C96.6175 271.156 96.0914 269.425 95.3306 266.939C94.7547 265.046 93.9442 262.376 95.2311 260.236C95.4373 259.889 96.1127 258.773 97.101 258.752C98.0892 258.731 98.8358 259.847 98.9708 260.052C100.116 261.768 98.8215 263.019 99.5254 265.674Z" fill="#FEFEFE"/>
<path d="M89.6997 116.239C87.6449 120.597 85.8106 124.496 86.4363 129.193L92.956 142.141C92.956 142.141 91.6264 146.887 85.775 146.131C85.775 146.131 83.18 151.86 89.6997 158.33C96.2194 164.8 92.956 183.505 92.956 183.505C92.956 183.505 92.956 200.457 96.2194 203.664C96.2194 203.664 92.956 216.618 99.4756 226.331V240.161C99.4756 240.161 89.6997 226.352 89.6997 213.404C89.6997 200.457 73.4253 200.429 73.4253 206.906C73.4253 213.383 73.4253 226.331 76.6816 232.808C79.9379 239.285 60.3859 239.285 60.3859 239.285C60.3859 239.285 73.4253 232.808 70.1406 229.566C66.8558 226.324 63.6209 229.566 63.6209 229.566C63.6209 229.566 60.3646 219.853 63.6209 219.853C66.8772 219.853 63.6209 203.657 63.6209 203.657C63.6209 203.657 53.8449 206.899 53.8449 213.376C53.8449 213.376 53.8449 203.657 60.3646 200.422C66.8843 197.187 63.6209 180.99 60.3646 180.99C57.1083 180.99 47.3252 193.944 47.3252 200.422C47.3252 206.899 44.0689 184.232 44.0689 184.232C44.0689 184.232 27.7732 190.709 31.0295 184.232C31.0295 184.232 44.0689 180.99 40.8055 174.52C37.5421 168.05 40.8055 155.088 40.8055 155.088C40.8055 155.088 33.4255 150.758 30.6029 154.544C27.7803 158.33 40.8055 135.663 44.0689 138.898C47.3323 142.134 57.1083 122.709 57.1083 122.709C60.0944 118.626 60.2295 113.484 57.6913 110.298C54.8474 106.767 49.771 106.908 48.804 106.957C47.0614 107.063 45.3629 107.545 43.8272 108.37C45.0365 106.153 46.8501 104.32 49.06 103.079C54.5843 100.12 61.0542 102.458 61.7368 100.515C62.0496 99.6112 60.8765 98.474 60.3646 97.9725C56.895 94.589 50.8303 96.7222 50.5673 96.814C52.9041 93.7895 55.9907 91.419 59.5256 89.9342C63.9157 88.1344 68.7671 87.7634 73.3827 88.8747C73.3116 83.9302 72.11 82.2208 70.9227 81.684C67.1545 79.9676 60.9263 88.4932 53.8236 87.1017C52.8922 86.9181 52.4016 86.6638 52.1741 86.247C51.1289 84.4882 54.6341 80.7304 60.3433 74.1472C60.3433 74.1472 73.3826 64.4349 76.6389 64.4349C79.8952 64.4349 76.6603 57.9224 73.4253 57.9224C70.1903 57.9224 96.2407 51.4451 99.497 64.3996C108.74 65.3673 115.85 65.1059 118.793 64.4349C120.869 63.9828 123.059 63.3189 123.094 63.3189C123.805 63.0999 125.291 62.6549 126.969 62.0192C128.526 61.4259 129.813 60.8325 135.352 57.9224C135.352 57.9224 145.128 57.9223 151.647 64.3996C158.167 70.8768 171.199 67.6417 171.199 67.6417C171.199 67.6417 220.094 61.1645 249.407 90.3086C278.721 119.453 308.049 148.618 308.049 161.572C308.049 174.527 304.793 174.527 304.793 174.527C304.793 174.527 296.929 161.424 281.33 177.691C281.33 177.691 288.525 187.474 291.782 184.239C295.038 181.004 287.182 195.583 281.33 194.764C275.479 193.944 281.33 205.903 281.33 205.903C275.5 203.035 273.225 199.701 272.23 197.194C270.495 192.857 272.088 189.756 272.23 180.997C272.249 176.948 271.985 172.903 271.441 168.89C269.45 155.194 260.442 151.231 252.671 135.692C249.619 129.539 247.425 123.001 246.151 116.26C246.151 116.26 226.599 87.1158 203.784 93.5931C180.968 100.07 187.488 100.07 187.488 100.07C173.753 95.8867 159.479 93.7049 145.114 93.5931C140.385 93.5931 108.143 93.5931 96.2265 106.548C93.6263 109.475 91.4313 112.734 89.6997 116.239ZM285.618 232.787C285.618 232.787 283.918 240.973 281.352 240.119C278.785 239.264 281.352 254.02 281.352 254.02L278.188 256.209C277.726 258.639 277.519 261.26 278.721 261.952C279.126 262.185 279.432 262.044 279.681 262.263C281.103 263.598 278.259 268.853 275.458 271.664C272.201 274.899 262.418 287.854 262.418 287.854C262.418 287.854 255.906 297.566 242.866 307.286C229.827 317.005 229.827 320.233 216.788 326.71C203.748 333.187 174.42 329.952 171.164 329.952C167.908 329.952 145.085 323.475 138.565 316.998C132.046 310.521 119.013 294.331 119.013 294.331C119.013 294.331 112.494 284.619 109.23 274.899C107.409 269.37 105.234 263.963 102.718 258.71C102.552 254.213 101.44 249.8 99.4543 245.755C99.4543 245.755 98.9282 241.517 99.4543 226.331C99.4543 226.331 102.718 242.52 105.974 242.52C109.23 242.52 112.288 239.483 112.487 239.292C112.352 239.511 109.301 244.547 112.487 248.348C115.672 252.148 125.526 248.997 125.526 248.997C125.526 248.997 132.039 268.422 135.302 268.422C138.565 268.422 135.302 248.997 141.822 242.52C141.822 242.52 149.337 228.047 167.893 219.853C169.109 219.317 171.448 217.628 172.55 218.441C172.789 218.637 172.952 218.909 173.012 219.211C174.117 219.425 175.243 219.52 176.368 219.493C177.236 219.493 178.544 219.295 181.957 218.405C183.824 217.922 185.66 217.323 187.452 216.611C187.452 216.611 210.268 213.369 220.044 226.324C220.044 226.324 226.563 223.088 229.82 229.559C233.076 236.029 239.596 239.278 236.339 252.225C236.339 252.225 249.379 245.748 249.379 242.513V232.808C249.379 232.808 252.635 236.043 255.899 229.566L262.411 216.618C262.411 216.618 265.675 210.141 268.931 210.141C272.187 210.141 272.194 197.187 272.194 197.187C272.194 197.187 280.626 201.149 281.302 207.259C282.191 215.858 283.633 224.392 285.618 232.808V232.787ZM233.112 255.475C233.112 248.997 223.329 242.52 223.869 240.14C224.409 237.759 213.581 229.545 207.061 229.545C200.542 229.545 187.509 232.787 177.726 232.787C167.943 232.787 161.402 242.52 151.633 248.997C141.864 255.475 141.85 268.415 141.85 268.415C141.85 268.415 141.85 274.892 148.37 284.612C154.89 294.331 161.402 291.082 161.402 291.082C161.402 291.082 174.441 287.847 180.961 284.612C187.481 281.377 167.922 265.18 167.922 265.18C184.217 265.18 216.809 258.703 210.296 261.945C203.784 265.187 207.033 281.37 210.296 281.37C213.56 281.37 223.329 274.892 226.592 271.657C229.855 268.422 233.112 261.952 233.112 255.475Z" fill="#261511"/>
<path opacity="0.11" d="M151.164 208.806C151.081 209.746 151.081 210.691 151.164 211.631C151.455 214.711 152.764 216.477 152.586 216.576C152.408 216.675 151.079 215.305 150.083 213.044C149.486 211.704 149.129 210.269 149.031 208.806C149.006 208.336 149.006 207.864 149.031 207.393C149.306 203.942 150.273 200.58 151.875 197.504C153.83 193.704 156.383 187.361 159.696 178.433C160.037 191.727 157.762 197.137 155.515 199.581C155.444 199.659 152.486 202.724 151.655 205.903C151.425 206.832 151.263 207.776 151.171 208.728V208.728C151.165 208.754 151.163 208.78 151.164 208.806ZM201.359 203.982C200.255 203.901 199.144 203.956 198.053 204.144C192.998 205.027 190.367 208.573 187.815 211.999C185.561 215.036 183.435 217.904 179.753 218.61C177.492 219.048 174.626 218.398 168.917 217.113C167.431 216.781 166.173 216.406 165.057 216.131C161.999 215.297 159.795 214.718 156.639 215.29L155.928 215.439C155.313 215.662 154.643 215.684 154.015 215.502C152.956 215.086 151.655 213.553 151.171 208.757C151.17 208.773 151.17 208.79 151.171 208.806C151.088 209.746 151.088 210.691 151.171 211.631C151.463 214.711 152.771 216.477 152.593 216.576C152.415 216.675 151.086 215.305 150.09 213.044C150.801 215.276 151.882 216.661 153.347 217.24C154.324 217.558 155.377 217.558 156.354 217.24C156.553 217.19 156.774 217.148 157.001 217.106C159.717 216.59 161.544 217.106 164.566 217.904C165.696 218.215 166.983 218.568 168.512 218.907C173.119 219.952 175.956 220.588 178.231 220.588C178.863 220.591 179.494 220.534 180.115 220.418C184.523 219.571 186.976 216.272 189.358 213.08C191.74 209.887 194.093 206.722 198.402 205.959C199.34 205.797 200.296 205.752 201.245 205.825C201.37 205.835 201.494 205.819 201.613 205.781C201.731 205.742 201.841 205.681 201.935 205.6C202.029 205.519 202.107 205.421 202.163 205.311C202.219 205.2 202.253 205.08 202.262 204.956C202.272 204.833 202.256 204.709 202.217 204.592C202.179 204.474 202.117 204.365 202.036 204.271C201.954 204.178 201.855 204.101 201.744 204.045C201.633 203.989 201.512 203.956 201.388 203.946L201.359 203.982Z" fill="#19535F"/>
<path opacity="0.11" d="M182.447 172.782C187.915 185.687 195.337 193.627 200.933 192.56C202.318 192.257 203.567 191.513 204.488 190.441C195.686 186.615 188.075 180.518 182.447 172.782Z" fill="#19535F"/>
<path d="M150.972 253.299C152.152 252.755 153.93 251.886 156.077 250.89C168.121 245.091 170.296 243.29 175.01 241.171C183.057 237.69 191.775 236.002 200.549 236.227C203.841 236.276 208.512 237.166 217.861 238.953C219.198 239.207 222.17 239.794 222.127 240.5C222.127 240.761 221.715 240.966 221.366 241.1C219.909 242.721 218.334 244.232 216.652 245.621C214.192 247.655 211.213 249.598 205.988 252.19C200.357 255.016 195.408 257.467 188.426 258.752C182.888 259.719 177.23 259.815 171.662 259.035C164.503 258.221 157.52 256.285 150.972 253.299V253.299Z" fill="#D48160"/>
<path opacity="0.2" d="M151.335 253.462C163.108 251.95 175.451 250.05 188.306 247.67C200.151 245.473 211.455 243.057 222.184 240.493" fill="#19535F"/>
<path d="M105.995 171.285C105.995 171.285 105.995 161.572 115.771 158.33C115.771 158.33 122.291 155.095 135.33 155.095L145.106 151.867C145.106 151.867 151.626 151.867 151.626 155.102C151.626 158.337 136.148 161.579 136.148 161.579C136.148 161.579 119.035 164.814 115.771 168.057C115.771 168.057 105.995 174.414 105.995 176.088V171.285Z" fill="#261511"/>
<path d="M174.441 148.618C174.441 148.618 180.961 138.906 187.481 138.906C187.481 138.906 203.777 132.428 220.072 135.67C220.072 135.67 226.592 135.67 233.105 142.141C233.105 142.141 207.033 142.141 207.033 145.383C207.033 145.383 187.268 148.618 182.483 151.86C177.698 155.102 174.441 148.618 174.441 148.618Z" fill="#261511"/>
<path d="M150.595 186.104C148.014 190.942 142.774 200.846 131.107 204.236C129.28 204.766 119.412 207.436 109.778 202.018C99.6463 196.325 97.0583 185.772 95.9776 181.4C94.8472 176.801 93.3897 170.882 95.9776 164.885C101.267 152.609 118.793 150.758 122.945 150.341C126.258 149.995 147.915 147.728 154.648 160.23C159.539 169.335 153.517 180.623 150.595 186.104Z" stroke="#FEFEFE" stroke-width="3.54" stroke-miterlimit="10"/>
<path d="M240.029 179.549C237.516 182.65 234.365 185.181 230.787 186.973C229.585 187.58 219.212 192.624 207.865 188.456C203.812 186.966 201.331 184.924 196.908 181.28C191.434 176.773 187.943 173.898 185.696 168.904C185.12 167.633 181.004 158.062 185.696 149.126C189.145 142.607 195.337 140.191 201.132 137.931C206.592 135.812 225.227 128.536 237.008 138.672C243.328 144.111 244.601 151.917 245.227 155.752C245.696 158.457 247.616 169.971 240.029 179.549Z" stroke="#FEFEFE" stroke-width="3.54" stroke-miterlimit="10"/>
<path d="M153.844 158.931C153.844 158.931 169.657 150.716 183.073 154.919" stroke="#FEFEFE" stroke-width="2.66" stroke-miterlimit="10"/>
<path d="M244.438 153.725H254.228C254.228 153.725 256.844 153.153 256.098 156.324H246.194" stroke="#FEFEFE" stroke-width="4.24" stroke-miterlimit="10"/>
<path d="M92.9915 172.493C92.9915 172.493 85.512 171.377 83.4572 175.459C82.9596 176.462 82.4263 178.214 83.1089 178.807C83.2368 178.92 83.6421 179.189 85.9528 178.384C88.6261 177.451 89.3442 176.646 91.1785 176.3C92.117 176.125 93.0783 176.109 94.0224 176.25" fill="#FEFEFE"/>
<path d="M92.9915 172.493C92.9915 172.493 85.512 171.377 83.4572 175.459C82.9596 176.462 82.4263 178.214 83.1089 178.807C83.2368 178.92 83.6421 179.189 85.9528 178.384C88.6261 177.451 89.3442 176.646 91.1785 176.3C92.117 176.125 93.0783 176.109 94.0224 176.25" stroke="#FEFEFE" stroke-miterlimit="10"/>
<path d="M255.635 152.397C260.3 152.531 268.369 153.167 272.415 156.324C273.232 156.96 275.913 159.044 275.479 159.898C275.416 159.994 275.332 160.075 275.234 160.135C275.135 160.194 275.025 160.232 274.91 160.244L257.648 157.419L255.635 152.397Z" fill="#EEF0F2" stroke="#EEF0F2" stroke-width="0.71" stroke-miterlimit="10"/>
<path d="M309.549 115.575C304.139 118.012 296.232 109.719 288.518 103.284C278.899 95.2389 254.839 87.4125 207.708 70.5873C167.346 56.1706 147.161 48.9658 141.85 48.2383C131.477 46.8256 120.578 46.2958 117.279 39.4018C113.24 30.968 122.483 16.954 132.067 9.38192C137.278 5.27095 152.806 -4.99233 193.993 2.90468C199.902 4.03484 299.731 24.3283 312.962 83.6759C315.337 94.3277 316.332 112.516 309.549 115.575Z" fill="#D8B384"/>
<path d="M379.78 206.906C380.022 226.811 380.178 239.398 373.26 245.755C364.288 254.02 346.179 247.585 321.11 239.278C321.11 239.278 317.839 238.572 304.814 232.801C301.181 231.19 297.818 229.587 297.214 226.656C296.808 224.706 297.811 223.124 298.842 221.231C298.842 221.231 299.667 219.733 300.811 217.042C302.304 213.553 303.826 210.141 304.75 205.74C305.056 204.285 305.184 203.212 305.461 201.057C305.953 197.074 306.19 193.063 306.172 189.049C306.119 188.108 306.119 187.165 306.172 186.224C306.281 185.308 306.328 184.385 306.314 183.462C306.314 182.911 306.236 182.509 306.172 181.986C306.072 180.785 305.834 179.6 305.461 178.454C305.34 178.129 305.383 178.306 304.039 175.629C303.477 174.513 303.492 174.527 303.328 174.216C302.795 173.214 302.206 172.243 301.565 171.306C298.721 167.068 297.946 165.231 295.052 161.594C291.078 156.6 290.026 157.115 285.269 151.881C280.356 146.471 280.499 144.818 275.493 138.927C272.49 135.446 269.221 132.199 265.717 129.214C249.462 114.834 232.017 101.838 213.567 90.3651C183.706 73.6458 171.896 69.1322 167.801 69.3158C164.693 69.4878 161.576 69.1901 158.558 68.4329C156.855 67.9955 155.191 67.4215 153.581 66.7164C142.703 62.1181 140.414 57.6752 135.458 58.4239C135.167 58.4663 133.269 59.3139 129.472 61.0021C125.156 62.9233 124.211 63.4814 122.049 64.0253C120.364 64.4491 120.45 64.2372 116.212 64.8587C110.787 65.6499 110.595 66.0101 108.505 66.109C106.941 66.1867 103.151 66.3703 99.5325 64.4561C95.096 62.1181 94.1646 58.6075 89.7566 57.9789C89.2002 57.8987 88.635 57.8987 88.0786 57.9789C85.1707 58.438 84.6802 60.663 81.6087 62.8103C78.3809 65.0636 77.2362 63.778 75.089 66.0454C73.731 67.4581 73.4253 68.7931 71.8256 69.2876C70.5174 69.6902 70.2046 68.9697 68.5693 69.2876C67.318 69.5277 67.6024 69.9304 64.3034 71.6962C63.429 72.1815 62.5882 72.7242 61.7866 73.3208C61.5389 73.5106 61.3015 73.7134 61.0756 73.9283C60.7272 74.2532 60.1371 74.8819 58.9853 76.1392C58.2984 76.8042 57.6549 77.512 57.0585 78.2582C56.0774 79.6709 56.1983 80.3773 55.5086 82.2279C54.3497 85.2864 52.8638 86.1058 53.205 86.5861C54.0866 87.8222 64.6874 83.4217 67.1971 82.016C67.9958 81.5334 68.9227 81.3019 69.8562 81.352C70.3093 81.3995 70.7514 81.5212 71.1644 81.7123C71.9372 82.1416 72.5654 82.7878 72.9703 83.57C73.3969 84.4459 73.0698 84.6295 73.4395 87.1017C73.5888 88.1118 73.731 88.6769 73.4395 88.8747C73.148 89.0725 72.8423 88.797 72.0176 88.578C71.4366 88.4563 70.8472 88.3784 70.2543 88.3449C69.1432 88.2106 68.0211 88.1893 66.9056 88.2814C66.4577 88.3237 66.1946 88.3732 65.5903 88.4721C63.266 88.8134 60.9928 89.4373 58.8218 90.3298C58.381 90.5205 58.1606 90.6123 57.8406 90.7748C56.4187 91.4811 55.7077 92.1875 53.9373 93.798C52.4727 95.0976 51.1574 96.1854 51.2783 96.362C51.3991 96.5386 51.9892 96.3196 52.2097 96.2631C53.6057 95.9211 55.0573 95.8659 56.4755 96.1007C56.7173 96.1501 56.5537 96.1007 57.7411 96.4397C58.2465 96.5276 58.7402 96.6721 59.2128 96.8706C59.6607 97.1107 59.4972 97.1884 60.4073 97.9725C61.0471 98.5234 61.3884 98.7142 61.5946 99.2157C61.6608 99.4029 61.7154 99.594 61.7581 99.7878C61.8719 100.247 61.9288 100.494 61.8292 100.65C61.7297 100.805 61.7368 100.734 61.3671 100.989C60.9974 101.243 61.0258 101.25 60.9121 101.321C60.5922 101.491 60.2229 101.546 59.8669 101.476C58.9284 101.377 56.1769 101.476 54.5772 101.54C52.2141 101.752 49.9369 102.525 47.9367 103.793C47.3333 104.193 46.7838 104.667 46.3014 105.206C45.7966 105.721 45.2278 106.315 45.3842 106.618C45.5406 106.922 45.9246 106.809 46.0952 106.802C47.5216 106.771 48.9454 106.667 50.3611 106.491C53.7951 105.912 57.0657 109.316 57.2861 109.592C58.2767 110.658 58.9809 111.956 59.3337 113.364C59.5967 114.501 59.7318 115.073 59.4545 115.342C58.1037 116.67 48.4841 109.119 45.7539 106.929C40.9335 103.065 39.739 101.589 34.3285 96.8282C22.3129 86.2753 17.9759 83.7748 11.4562 75.5388C10.2975 74.0649 9.22681 72.5248 8.2497 70.9263C3.98381 64.0747 -0.993054 56.0082 1.73 48.2595C3.74919 42.3826 9.20952 39.6915 17.9688 35.3191C21.8081 33.3979 34.3854 27.4433 53.8236 25.6068C61.4107 24.8719 69.0518 24.8719 76.639 25.6068C95.6932 27.5705 108.811 34.0477 119.013 38.5613C137.584 46.7691 132.742 42.3544 177.676 57.9859C230.694 76.4288 261.38 87.1017 298.273 106.562C364.942 141.717 373.978 164.483 376.481 174.562C379.467 186.337 379.766 205.995 379.78 206.906ZM46.1521 107.423C46.3156 107.353 46.4863 107.289 46.664 107.226C47.6157 106.876 48.6106 106.655 49.6217 106.569L45.6971 105.799C45.6971 105.799 45.3771 106.145 45.0572 106.505L46.1521 107.423Z" fill="#5E454B"/>
<path opacity="0.11" d="M84.8934 207.252C84.4597 207.252 78.7719 207.513 76.1199 211.971C75.7929 212.514 74.25 215.121 74.9326 217.932C75.3236 219.528 76.1341 219.981 76.6887 221.789C77.1732 223.452 77.1953 225.214 76.7527 226.889C76.7527 226.889 72.3802 219.182 71.6123 217.501C71.1537 216.528 71.0002 215.44 71.1715 214.379C71.5784 213.445 72.0389 212.535 72.5508 211.653C73.2913 210.26 74.3536 209.062 75.6507 208.156C77.0676 207.251 78.7025 206.739 80.3858 206.673C81.9125 206.554 83.4475 206.751 84.8934 207.252V207.252Z" fill="#19535F"/>
</svg>
